<svg width="281" height="34" viewBox="0 0 281 34" fill="none" xmlns="http://www.w3.org/2000/svg">
<path d="M0.568115 33.9999L15.5441 0.399902H23.2241L38.2481 33.9999H30.0881L17.8001 4.3359H20.8721L8.53612 33.9999H0.568115ZM8.05612 26.7999L10.1201 20.8959H27.4001L29.5121 26.7999H8.05612Z" fill="#1F8505"/>
<path d="M41.4461 33.9999V6.3999H49.0301V28.0959H62.5181V33.9999H41.4461Z" fill="#1F8505"/>
<path d="M66.618 33.9999V6.3999H79.626C82.794 6.3999 85.546 6.9599 87.882 8.0799C90.25 9.1999 92.074 10.7999 93.354 12.8799C94.666 14.9279 95.322 17.3759 95.322 20.2239C95.322 23.0399 94.666 25.4879 93.354 27.5679C92.074 29.6159 90.25 31.1999 87.882 32.3199C85.546 33.4399 82.794 33.9999 79.626 33.9999H66.618ZM74.202 28.0479H79.386C81.082 28.0479 82.538 27.7439 83.754 27.1359C85.002 26.5279 85.962 25.6479 86.634 24.4959C87.306 23.3119 87.642 21.8879 87.642 20.2239C87.642 18.5279 87.306 17.1039 86.634 15.9519C85.962 14.7679 85.002 13.8719 83.754 13.2639C82.538 12.6559 81.082 12.3519 79.386 12.3519H74.202V28.0479Z" fill="#1F8505"/>
<path d="M107.416 17.2479H120.76V22.7679H107.416V17.2479ZM108.184 28.1919H122.92V33.9999H100.696V6.3999H122.392V12.2079H108.184V28.1919Z" fill="#1F8505"/>
<path d="M128.446 33.9999V6.3999H142.558C146.206 6.3999 148.926 7.0719 150.718 8.4159C152.542 9.7599 153.454 11.5039 153.454 13.6479C153.454 15.7599 152.686 17.4719 151.15 18.7839C149.646 20.0959 147.534 20.7519 144.814 20.7519L145.582 18.9279C148.43 18.9279 150.686 19.5839 152.35 20.8959C154.014 22.1759 154.846 24.0159 154.846 26.4159C154.846 28.7839 153.87 30.6399 151.918 31.9839C149.966 33.3279 147.102 33.9999 143.326 33.9999H128.446ZM135.934 28.6719H142.798C144.238 28.6719 145.326 28.4159 146.062 27.9039C146.83 27.3919 147.214 26.6399 147.214 25.6479C147.214 24.6239 146.83 23.8719 146.062 23.3919C145.326 22.8799 144.238 22.6239 142.798 22.6239H135.166V17.5359H141.598C143.006 17.5359 144.062 17.2959 144.766 16.8159C145.502 16.3359 145.87 15.6159 145.87 14.6559C145.87 13.6959 145.502 12.9759 144.766 12.4959C144.062 11.9839 143.006 11.7279 141.598 11.7279H135.934V28.6719Z" fill="#1F8505"/>
<path d="M155.912 33.9999L168.296 6.3999H175.784L188.216 33.9999H180.728L170.792 10.0479H173.336L163.256 33.9999H155.912ZM162.68 28.5279L164.648 23.0559H178.28L180.248 28.5279H162.68Z" fill="#1F8505"/>
<path d="M191.493 33.9999V6.3999H204.069C206.629 6.3999 208.821 6.8159 210.645 7.6479C212.501 8.4479 213.941 9.5999 214.965 11.1039C215.989 12.6079 216.501 14.4319 216.501 16.5759C216.501 18.6559 215.989 20.4479 214.965 21.9519C213.941 23.4559 212.501 24.6079 210.645 25.4079C208.821 26.2079 206.629 26.6079 204.069 26.6079H195.669L199.077 23.3919V33.9999H191.493ZM208.869 33.9999L201.909 23.9679H209.973L217.029 33.9999H208.869ZM199.077 24.2559L196.293 20.8479H203.541C205.301 20.8479 206.629 20.4799 207.525 19.7439C208.421 18.9759 208.869 17.9199 208.869 16.5759C208.869 15.1999 208.421 14.1439 207.525 13.4079C206.629 12.6719 205.301 12.3039 203.541 12.3039H196.293L199.077 8.8959V24.2559Z" fill="#1F8505"/>
<path d="M218.256 33.9999L230.64 6.3999H238.128L250.56 33.9999H243.072L233.136 10.0479H235.68L225.6 33.9999H218.256ZM225.024 28.5279L226.992 23.0559H240.624L242.592 28.5279H225.024Z" fill="#1F8505"/>
<path d="M253.837 33.9999V6.3999H260.077L275.629 25.0719H272.797V6.3999H280.237V33.9999H273.997L258.397 15.3279H261.277V33.9999H253.837Z" fill="#1F8505"/>
</svg>
