<svg width="157" height="53" viewBox="0 0 157 53" fill="none" xmlns="http://www.w3.org/2000/svg">
<path d="M10.6719 50.024C9.47725 50.024 8.36792 49.7467 7.34392 49.192C6.36259 48.6373 5.50925 47.8907 4.78392 46.952C4.14392 46.056 3.56792 44.9253 3.05592 43.56C2.54392 42.152 2.15992 40.7013 1.90392 39.208C1.39192 36.6907 1.05058 33.384 0.879918 29.288C0.837251 28.3067 0.815918 26.6213 0.815918 24.232V20.2C0.858585 19.048 0.879918 17.8533 0.879918 16.616C0.879918 14.0987 1.02925 12.1147 1.32792 10.664C1.19992 10.024 1.13592 9.36267 1.13592 8.68C1.13592 6.12 2.09592 4.05067 4.01592 2.472C5.93592 0.893337 8.36792 0.104004 11.3119 0.104004C12.4213 0.104004 13.4453 0.402671 14.3839 1C15.3226 1.59734 15.7919 2.344 15.7919 3.24001C15.7919 3.66667 15.6213 4.008 15.2799 4.264C14.9386 4.52001 14.5119 4.64801 13.9999 4.64801C13.5733 4.64801 13.1039 4.58401 12.5919 4.45601C12.1226 4.328 11.8239 4.136 11.6959 3.88H10.8639V3.75201C9.28525 3.75201 7.96259 4.09334 6.89592 4.776C6.12792 5.33067 5.53058 6.24801 5.10392 7.52801C4.93325 7.99734 4.80525 8.59467 4.71992 9.32001C4.63458 10.0453 4.59192 10.7067 4.59192 11.304C4.54925 11.6453 4.52792 12.328 4.52792 13.352L4.65592 15.592L4.71992 17.768C4.71992 18.408 4.63458 19.1547 4.46392 20.008C4.25058 21.0747 4.14392 21.8213 4.14392 22.248V23.784C4.14392 25.448 4.20792 27.7307 4.33592 30.632C4.37858 33.064 4.65592 35.496 5.16792 37.928C5.55192 40.1893 6.27725 42.1093 7.34392 43.688C8.36792 45.3093 9.75458 46.12 11.5039 46.12C12.2293 46.12 13.1253 45.736 14.1919 44.968C15.3439 44.2 16.1546 43.816 16.6239 43.816C17.2213 43.816 17.8399 44.136 18.4799 44.776C18.4799 46.3547 17.8826 47.5707 16.6879 48.424C15.5786 49.192 14.2559 49.6827 12.7199 49.896C11.8666 49.9813 11.1839 50.024 10.6719 50.024Z" fill="#1F8505"/>
<path d="M33.5144 50.216C32.4051 50.216 31.3811 49.8533 30.4424 49.128C29.5038 48.4453 28.7358 47.5067 28.1384 46.312C26.9011 43.7093 26.1331 40.872 25.8344 37.8C25.4504 34.8987 25.2584 32.104 25.2584 29.416C25.2584 28.904 25.2798 28.4773 25.3224 28.136V26.984C25.3224 26.7707 25.3011 26.664 25.2584 26.664V25.512L25.3224 21.032C25.3651 19.6667 25.5358 17.4907 25.8344 14.504C26.0478 12.456 26.5384 10.472 27.3064 8.55201C27.6051 7.69867 27.9891 7.05867 28.4584 6.632C28.9278 6.16267 29.4611 5.92801 30.0584 5.92801C31.7651 5.92801 33.3011 6.248 34.6664 6.888C36.0317 7.48534 37.1838 8.33867 38.1224 9.44801C38.9758 10.5147 39.7011 11.8373 40.2984 13.416C40.8957 14.952 41.3224 16.5947 41.5784 18.344C41.8344 20.136 41.9624 22.0347 41.9624 24.04V24.552C41.9624 25.8747 41.9837 27.0693 42.0264 28.136L42.0904 31.784C42.0904 44.072 39.2317 50.216 33.5144 50.216ZM33.2584 47.528C34.0264 47.528 34.7304 47.2293 35.3704 46.632C36.0104 45.992 36.5011 45.1387 36.8424 44.072C37.6531 41.896 38.1438 39.5493 38.3144 37.032C38.5278 34.856 38.6344 32.9787 38.6344 31.4C38.6344 29.48 38.4851 26.9627 38.1864 23.848C37.9304 20.5627 37.8024 18.1093 37.8024 16.488V15.336C37.7171 13.7147 37.1624 12.3067 36.1384 11.112C35.1571 9.91734 33.9411 9.32001 32.4904 9.32001C31.0398 9.32001 30.0798 10.152 29.6104 11.816C29.1838 13.1387 28.9704 14.8453 28.9704 16.936C28.9704 17.7467 28.9918 18.4293 29.0344 18.984V20.712L28.9064 23.656C28.8211 24.552 28.7784 25.5333 28.7784 26.6C28.7784 28.904 28.8424 31.1867 28.9704 33.448C29.1411 36.648 29.5678 39.7627 30.2504 42.792C30.9331 45.9493 31.9358 47.528 33.2584 47.528Z" fill="#1F8505"/>
<path d="M77.4409 52.328C76.1183 52.328 75.4569 51.0053 75.4569 48.36V40.168C75.4569 38.0347 75.3076 35.24 75.0089 31.784C74.6676 27.9013 74.4969 25.2347 74.4969 23.784L74.6249 19.816C74.7102 18.664 74.7529 17.3627 74.7529 15.912C74.5822 16.4667 73.8782 19.4107 72.6409 24.744C71.4036 29.9067 70.1236 34.6853 68.8009 39.08C67.5209 43.304 66.4756 45.416 65.6649 45.416C64.8543 45.416 64.1929 45.1813 63.6809 44.712C63.2116 44.2 62.9769 43.5173 62.9769 42.664C62.9769 40.7867 62.2089 36.7973 60.6729 30.696C59.1796 24.5947 57.8142 19.6027 56.5769 15.72L56.1929 22.952C55.8516 29.0533 55.6169 34.1307 55.4889 38.184C55.4036 42.1093 55.3609 44.7973 55.3609 46.248C55.3609 46.5893 55.3822 46.9093 55.4249 47.208V48.104C55.4249 48.8293 55.2756 49.3627 54.9769 49.704C54.6783 50.088 54.1236 50.28 53.3129 50.28C52.8862 50.28 52.4809 50.1093 52.0969 49.768C51.7129 49.4693 51.5209 49.128 51.5209 48.744C51.5209 44.392 51.8409 37.864 52.4809 29.16C53.1209 20.456 53.4409 13.928 53.4409 9.576C53.1849 9.19201 53.0569 8.78667 53.0569 8.36C53.0569 7.84801 53.2916 7.46401 53.7609 7.208C54.2729 6.90934 54.8703 6.76001 55.5529 6.76001C56.1076 6.76001 57.1316 8.76534 58.6249 12.776C60.1182 16.7867 61.6116 21.3307 63.1049 26.408C64.5982 31.4853 65.5582 35.1547 65.9849 37.416C66.3262 36.264 66.6036 35.1973 66.8169 34.216L67.2009 32.68C68.5663 26.7067 69.9316 21.3093 71.2969 16.488C72.1076 13.544 72.8969 11.24 73.6649 9.576C74.4329 7.784 75.1369 6.888 75.7769 6.888C76.3742 6.888 76.9076 7.05867 77.3769 7.40001C77.8889 7.69867 78.1449 8.10401 78.1449 8.616C78.1449 11.688 78.2729 16.296 78.5289 22.44C78.8276 28.1573 78.9769 32.5947 78.9769 35.752L78.9129 39.144L78.7849 42.536C78.7849 43.048 78.8489 43.816 78.9769 44.84L79.1689 47.08C79.2116 47.464 79.2329 47.7627 79.2329 47.976C79.2756 48.1893 79.2969 48.3173 79.2969 48.36C79.5103 48.9147 79.6169 49.32 79.6169 49.576C79.6169 50.3013 79.4036 50.9413 78.9769 51.496C78.5503 52.0507 78.0383 52.328 77.4409 52.328Z" fill="#1F8505"/>
<path d="M97.5719 50.216C96.4626 50.216 95.4386 49.8533 94.4999 49.128C93.5612 48.4453 92.7932 47.5067 92.1959 46.312C90.9586 43.7093 90.1906 40.872 89.8919 37.8C89.5079 34.8987 89.3159 32.104 89.3159 29.416C89.3159 28.904 89.3373 28.4773 89.3799 28.136V26.984C89.3799 26.7707 89.3586 26.664 89.3159 26.664V25.512L89.3799 21.032C89.4226 19.6667 89.5933 17.4907 89.8919 14.504C90.1053 12.456 90.5959 10.472 91.3639 8.55201C91.6626 7.69867 92.0466 7.05867 92.5159 6.632C92.9852 6.16267 93.5186 5.92801 94.1159 5.92801C95.8226 5.92801 97.3586 6.248 98.7239 6.888C100.089 7.48534 101.241 8.33867 102.18 9.44801C103.033 10.5147 103.759 11.8373 104.356 13.416C104.953 14.952 105.38 16.5947 105.636 18.344C105.892 20.136 106.02 22.0347 106.02 24.04V24.552C106.02 25.8747 106.041 27.0693 106.084 28.136L106.148 31.784C106.148 44.072 103.289 50.216 97.5719 50.216ZM97.3159 47.528C98.0839 47.528 98.7879 47.2293 99.4279 46.632C100.068 45.992 100.559 45.1387 100.9 44.072C101.711 41.896 102.201 39.5493 102.372 37.032C102.585 34.856 102.692 32.9787 102.692 31.4C102.692 29.48 102.543 26.9627 102.244 23.848C101.988 20.5627 101.86 18.1093 101.86 16.488V15.336C101.775 13.7147 101.22 12.3067 100.196 11.112C99.2146 9.91734 97.9986 9.32001 96.5479 9.32001C95.0973 9.32001 94.1372 10.152 93.6679 11.816C93.2412 13.1387 93.0279 14.8453 93.0279 16.936C93.0279 17.7467 93.0493 18.4293 93.0919 18.984V20.712L92.9639 23.656C92.8786 24.552 92.8359 25.5333 92.8359 26.6C92.8359 28.904 92.8999 31.1867 93.0279 33.448C93.1986 36.648 93.6252 39.7627 94.3079 42.792C94.9906 45.9493 95.9933 47.528 97.3159 47.528Z" fill="#1F8505"/>
<path d="M117.754 49.384C116.645 49.384 116.09 46.5893 116.09 41L116.218 30.888C116.261 27.9013 116.282 24.552 116.282 20.84C116.282 19.4747 116.154 17.3627 115.898 14.504C115.685 11.3893 115.578 9.49067 115.578 8.80801C115.578 8.25334 115.813 7.76267 116.282 7.33601C116.752 6.90934 117.264 6.69601 117.818 6.69601C119.312 6.69601 120.741 7.03734 122.106 7.72001C123.514 8.36 124.752 9.27734 125.818 10.472C128.08 13.0747 129.573 15.9333 130.298 19.048C130.682 20.6267 130.874 22.184 130.874 23.72C130.874 24.2747 130.853 24.7867 130.81 25.256L130.746 26.984V30.504C130.746 33.2347 130.661 35.3893 130.49 36.968C130.234 39.1013 129.744 41 129.018 42.664C128.165 44.456 126.928 46.056 125.306 47.464C124.538 48.104 123.557 48.744 122.362 49.384H117.754ZM120.57 46.12C121.424 46.12 122.213 45.9067 122.938 45.48C123.664 45.0107 124.282 44.392 124.794 43.624C125.221 42.9413 125.605 42.088 125.946 41.064C126.33 39.9973 126.608 38.9733 126.778 37.992C127.162 36.072 127.397 34.1093 127.482 32.104C127.525 31.592 127.546 30.8453 127.546 29.864C127.546 16.9787 125.05 10.2587 120.058 9.70401C119.76 11.624 119.61 13.8427 119.61 16.36C119.61 19.048 119.781 23.7413 120.122 30.44C120.421 36.3707 120.57 41.0853 120.57 44.584V46.12Z" fill="#1F8505"/>
<path d="M147.879 50.216C146.77 50.216 145.746 49.8533 144.807 49.128C143.869 48.4453 143.101 47.5067 142.503 46.312C141.266 43.7093 140.498 40.872 140.199 37.8C139.815 34.8987 139.623 32.104 139.623 29.416C139.623 28.904 139.645 28.4773 139.687 28.136V26.984C139.687 26.7707 139.666 26.664 139.623 26.664V25.512L139.687 21.032C139.73 19.6667 139.901 17.4907 140.199 14.504C140.413 12.456 140.903 10.472 141.671 8.55201C141.97 7.69867 142.354 7.05867 142.823 6.632C143.293 6.16267 143.826 5.92801 144.423 5.92801C146.13 5.92801 147.666 6.248 149.031 6.888C150.397 7.48534 151.549 8.33867 152.487 9.44801C153.341 10.5147 154.066 11.8373 154.663 13.416C155.261 14.952 155.687 16.5947 155.943 18.344C156.199 20.136 156.327 22.0347 156.327 24.04V24.552C156.327 25.8747 156.349 27.0693 156.391 28.136L156.455 31.784C156.455 44.072 153.597 50.216 147.879 50.216ZM147.623 47.528C148.391 47.528 149.095 47.2293 149.735 46.632C150.375 45.992 150.866 45.1387 151.207 44.072C152.018 41.896 152.509 39.5493 152.679 37.032C152.893 34.856 152.999 32.9787 152.999 31.4C152.999 29.48 152.85 26.9627 152.551 23.848C152.295 20.5627 152.167 18.1093 152.167 16.488V15.336C152.082 13.7147 151.527 12.3067 150.503 11.112C149.522 9.91734 148.306 9.32001 146.855 9.32001C145.405 9.32001 144.445 10.152 143.975 11.816C143.549 13.1387 143.335 14.8453 143.335 16.936C143.335 17.7467 143.357 18.4293 143.399 18.984V20.712L143.271 23.656C143.186 24.552 143.143 25.5333 143.143 26.6C143.143 28.904 143.207 31.1867 143.335 33.448C143.506 36.648 143.933 39.7627 144.615 42.792C145.298 45.9493 146.301 47.528 147.623 47.528Z" fill="#1F8505"/>
</svg>
