<svg width="214" height="53" viewBox="0 0 214 53" fill="none" xmlns="http://www.w3.org/2000/svg">
<path d="M0.840088 52.0002V0.160156H24.1361V7.96816H12.2961V20.8322H21.3201V28.7682H12.2961V44.2562H24.2641V52.0002H0.840088Z" fill="#1F8505"/>
<path d="M27.6731 52.0002V15.0082H38.1051V52.0002H27.6731ZM27.6091 8.73616V1.50416H38.1051V8.73616H27.6091Z" fill="#1F8505"/>
<path d="M43.2666 52.0002V15.0082H53.6986V18.7202C55.0639 17.3548 56.4719 16.2882 57.9226 15.5202C59.4159 14.7522 60.9733 14.3682 62.5946 14.3682C64.1306 14.3682 65.3893 14.7522 66.3706 15.5202C67.3946 16.2455 68.1626 17.2695 68.6746 18.5922C69.1866 19.8722 69.4426 21.3442 69.4426 23.0082V52.0002H59.0746V24.4802C59.0746 23.5842 58.9253 22.9015 58.6266 22.4322C58.3279 21.9628 57.7733 21.7282 56.9626 21.7282C56.5359 21.7282 56.0239 21.8562 55.4266 22.1122C54.8719 22.3255 54.2959 22.6455 53.6986 23.0722V52.0002H43.2666Z" fill="#1F8505"/>
<path d="M92.7921 52.6402C91.4268 52.6402 90.0614 52.3415 88.6961 51.7442C87.3734 51.1042 86.0934 50.2508 84.8561 49.1842V52.0002H74.4241V0.160156H84.8561V17.6962C86.1361 16.5868 87.4588 15.7548 88.8241 15.2002C90.2321 14.6455 91.5974 14.3682 92.9201 14.3682C94.3281 14.3682 95.5228 14.6455 96.5041 15.2002C97.5281 15.7548 98.3601 16.5442 99.0001 17.5682C99.6401 18.5495 100.109 19.7015 100.408 21.0242C100.707 22.3468 100.856 23.7548 100.856 25.2482V41.1842C100.856 43.4882 100.536 45.4935 99.8961 47.2002C99.2988 48.9068 98.4028 50.2508 97.2081 51.2322C96.0134 52.1708 94.5414 52.6402 92.7921 52.6402ZM87.7361 45.9202C88.4188 45.9202 88.9521 45.7282 89.3361 45.3442C89.7201 44.9602 89.9974 44.4695 90.1681 43.8722C90.3388 43.2322 90.4241 42.5282 90.4241 41.7602V24.4802C90.4241 23.7548 90.3388 23.1148 90.1681 22.5602C89.9974 21.9628 89.7201 21.4935 89.3361 21.1522C88.9948 20.8108 88.5041 20.6402 87.8641 20.6402C87.3094 20.6402 86.7761 20.7682 86.2641 21.0242C85.7948 21.2375 85.3254 21.5148 84.8561 21.8562V44.8962C85.3254 45.1948 85.7948 45.4508 86.2641 45.6642C86.7761 45.8348 87.2668 45.9202 87.7361 45.9202Z" fill="#1F8505"/>
<path d="M105.647 52.0002V15.0082H116.079V21.1522C117.274 19.0188 118.468 17.3975 119.663 16.2882C120.858 15.1362 122.308 14.5602 124.015 14.5602C124.356 14.5602 124.655 14.5815 124.911 14.6242C125.167 14.6242 125.402 14.6668 125.615 14.7522V25.1202C125.146 24.9068 124.612 24.7362 124.015 24.6082C123.46 24.4375 122.863 24.3522 122.223 24.3522C121.028 24.3522 119.919 24.6722 118.895 25.3122C117.871 25.9522 116.932 26.8268 116.079 27.9362V52.0002H105.647Z" fill="#1F8505"/>
<path d="M140.837 52.6402C138.191 52.6402 135.887 52.1922 133.925 51.2962C132.005 50.4002 130.511 49.0562 129.445 47.2642C128.421 45.4722 127.909 43.2322 127.909 40.5442V26.4642C127.909 23.7762 128.421 21.5362 129.445 19.7442C130.511 17.9522 132.005 16.6082 133.925 15.7122C135.887 14.8162 138.191 14.3682 140.837 14.3682C143.482 14.3682 145.765 14.8162 147.685 15.7122C149.647 16.6082 151.162 17.9522 152.229 19.7442C153.295 21.5362 153.829 23.7762 153.829 26.4642V40.5442C153.829 43.2322 153.295 45.4722 152.229 47.2642C151.162 49.0562 149.647 50.4002 147.685 51.2962C145.765 52.1922 143.482 52.6402 140.837 52.6402ZM140.901 45.7282C141.583 45.7282 142.117 45.5575 142.501 45.2162C142.885 44.8322 143.141 44.3202 143.269 43.6802C143.439 42.9975 143.525 42.1868 143.525 41.2482V25.7602C143.525 24.8215 143.439 24.0322 143.269 23.3922C143.141 22.7095 142.885 22.1975 142.501 21.8562C142.117 21.4722 141.583 21.2802 140.901 21.2802C140.218 21.2802 139.685 21.4722 139.301 21.8562C138.917 22.1975 138.639 22.7095 138.469 23.3922C138.298 24.0322 138.213 24.8215 138.213 25.7602V41.2482C138.213 42.1868 138.298 42.9975 138.469 43.6802C138.639 44.3202 138.917 44.8322 139.301 45.2162C139.685 45.5575 140.218 45.7282 140.901 45.7282Z" fill="#1F8505"/>
<path d="M170.366 52.6402C167.678 52.6402 165.374 52.1495 163.454 51.1682C161.577 50.1868 160.126 48.7788 159.102 46.9442C158.078 45.1095 157.566 42.8908 157.566 40.2882V26.7202C157.566 24.0748 158.078 21.8348 159.102 20.0002C160.126 18.1655 161.577 16.7788 163.454 15.8402C165.374 14.8588 167.678 14.3682 170.366 14.3682C173.011 14.3682 175.251 14.7735 177.086 15.5842C178.963 16.3948 180.393 17.6322 181.374 19.2962C182.355 20.9175 182.846 22.9868 182.846 25.5042V29.4082H172.798V25.1842C172.798 24.2028 172.691 23.4562 172.478 22.9442C172.307 22.3895 172.03 22.0055 171.646 21.7922C171.305 21.5788 170.878 21.4722 170.366 21.4722C169.854 21.4722 169.427 21.6215 169.086 21.9202C168.745 22.1762 168.489 22.6242 168.318 23.2642C168.147 23.8615 168.062 24.7148 168.062 25.8242V41.1842C168.062 42.8482 168.254 43.9788 168.638 44.5762C169.065 45.1735 169.662 45.4722 170.43 45.4722C170.985 45.4722 171.433 45.3655 171.774 45.1522C172.115 44.8962 172.371 44.5122 172.542 44.0002C172.713 43.4455 172.798 42.7202 172.798 41.8242V36.8962H182.846V41.3762C182.846 43.8508 182.334 45.9415 181.31 47.6482C180.329 49.3122 178.899 50.5708 177.022 51.4242C175.187 52.2348 172.969 52.6402 170.366 52.6402Z" fill="#1F8505"/>
<path d="M187.056 52.0002V0.160156H197.424V18.2722C198.789 16.9068 200.218 15.9255 201.712 15.3282C203.205 14.6882 204.805 14.3682 206.512 14.3682C208.005 14.3682 209.242 14.7522 210.224 15.5202C211.248 16.2455 212.016 17.2695 212.528 18.5922C213.04 19.8722 213.296 21.3442 213.296 23.0082V52.0002H202.928V24.4802C202.928 23.5842 202.778 22.9015 202.48 22.4322C202.181 21.9628 201.626 21.7282 200.816 21.7282C200.389 21.7282 199.877 21.8562 199.28 22.1122C198.682 22.3255 198.064 22.6455 197.424 23.0722V52.0002H187.056Z" fill="#1F8505"/>
</svg>
