<svg width="245" height="47" viewBox="0 0 245 47" fill="none" xmlns="http://www.w3.org/2000/svg">
<path d="M42.3761 28.0802V38.6402C41.3948 39.9202 40.0721 41.2002 38.4081 42.4802C36.7441 43.7602 34.6961 44.8269 32.2641 45.6802C29.8748 46.4909 27.0588 46.8962 23.8161 46.8962C19.2934 46.8535 15.3041 45.8722 11.8481 43.9522C8.39209 41.9895 5.68275 39.2802 3.72009 35.8242C1.80009 32.3255 0.840088 28.2509 0.840088 23.6002C0.840088 18.9495 1.80009 14.8749 3.72009 11.3762C5.68275 7.87753 8.39209 5.1682 11.8481 3.2482C15.3041 1.28553 19.2934 0.304199 23.8161 0.304199C26.1628 0.304199 28.2748 0.496199 30.1521 0.880199C32.0294 1.2642 33.7148 1.79753 35.2081 2.4802C36.7441 3.1202 38.1308 3.84553 39.3681 4.6562L40.6481 13.6802H40.0721C39.4321 11.2055 38.3654 9.1362 36.8721 7.4722C35.4214 5.76553 33.5868 4.4642 31.3681 3.5682C29.1494 2.6722 26.6321 2.2242 23.8161 2.2242C20.2321 2.2242 17.0748 3.1202 14.3441 4.9122C11.6134 6.7042 9.48009 9.2002 7.94409 12.4002C6.40809 15.6002 5.64009 19.3335 5.64009 23.6002C5.64009 27.8669 6.40809 31.6002 7.94409 34.8002C9.48009 38.0002 11.6134 40.4962 14.3441 42.2882C17.0748 44.0375 20.2321 44.9335 23.8161 44.9762C25.6934 44.9762 27.4854 44.7629 29.1921 44.3362C30.9414 43.8669 32.5841 43.2269 34.1201 42.4162C35.6561 41.5629 37.0214 40.5602 38.2161 39.4082L38.2801 28.0802C38.2801 26.1602 37.1921 25.2002 35.0161 25.2002H33.9921V24.5602H46.5361V25.2002H45.5761C43.3574 25.2002 42.2908 26.1602 42.3761 28.0802Z" fill="#1F8505"/>
<path d="M62.2216 7.6002V46.0002H58.1256V7.6002H62.2216ZM79.4376 44.0162L79.3096 46.0002H62.0936V44.0162H79.4376ZM76.4296 25.8402V27.7602H62.0936V25.8402H76.4296ZM79.3736 7.6002V9.5842H62.0936V7.6002H79.3736ZM83.0216 36.8482L79.5016 46.0002H69.7736L71.9496 44.0162C74.0829 44.0162 75.7896 43.7175 77.0696 43.1202C78.3923 42.4802 79.4589 41.6269 80.2696 40.5602C81.0803 39.4509 81.7843 38.2135 82.3816 36.8482H83.0216ZM76.4296 27.6322V31.2802H75.7256V30.4482C75.7256 29.7229 75.5123 29.1042 75.0856 28.5922C74.6589 28.0375 73.9976 27.7602 73.1016 27.7602V27.6322H76.4296ZM76.4296 22.3202V25.9682H73.1016V25.8402C73.9976 25.8402 74.6589 25.5842 75.0856 25.0722C75.5123 24.5175 75.7256 23.8775 75.7256 23.1522V22.3202H76.4296ZM79.3736 9.3922V13.8082H78.6696V12.8482C78.6696 11.9522 78.3709 11.1842 77.7736 10.5442C77.2189 9.9042 76.4509 9.5842 75.4696 9.5842V9.3922H79.3736ZM79.3736 6.5762V8.2402L72.0776 7.6002C73.4003 7.6002 74.8083 7.49353 76.3016 7.2802C77.7949 7.0242 78.8189 6.78953 79.3736 6.5762ZM58.2536 41.9042L59.0856 46.0002H53.5176V45.3602C53.5176 45.3602 53.6669 45.3602 53.9656 45.3602C54.2643 45.3602 54.4136 45.3602 54.4136 45.3602C55.4803 45.3602 56.3549 45.0189 57.0376 44.3362C57.7203 43.6535 58.0829 42.8429 58.1256 41.9042H58.2536ZM58.2536 11.6322H58.1256C58.0829 10.6509 57.7203 9.8402 57.0376 9.2002C56.3549 8.5602 55.4803 8.2402 54.4136 8.2402C54.4136 8.2402 54.2643 8.2402 53.9656 8.2402C53.6669 8.2402 53.5176 8.2402 53.5176 8.2402V7.6002H59.0856L58.2536 11.6322Z" fill="#1F8505"/>
<path d="M99.0941 7.6002V46.0002H95.0621V7.6002H99.0941ZM113.494 25.8402V27.7602H98.9661V25.8402H113.494ZM116.502 7.6002V9.5842H98.9661V7.6002H116.502ZM113.494 27.6322V31.2802H112.79V30.4482C112.79 29.7229 112.577 29.1042 112.15 28.5922C111.766 28.0375 111.105 27.7602 110.166 27.7602V27.6322H113.494ZM113.494 22.3202V25.9682H110.166V25.8402C111.105 25.8402 111.766 25.5842 112.15 25.0722C112.577 24.5175 112.79 23.8775 112.79 23.1522V22.3202H113.494ZM116.502 9.3922V13.8082H115.798V12.8482C115.798 11.9522 115.499 11.1842 114.902 10.5442C114.347 9.9042 113.579 9.5842 112.598 9.5842V9.3922H116.502ZM116.502 6.5762V8.2402L109.142 7.6002C110.038 7.6002 110.977 7.55753 111.958 7.4722C112.939 7.3442 113.835 7.19487 114.646 7.0242C115.499 6.85353 116.118 6.7042 116.502 6.5762ZM95.1901 41.9042L96.0221 46.0002H90.3901V45.3602C90.3901 45.3602 90.5394 45.3602 90.8381 45.3602C91.1368 45.3602 91.2861 45.3602 91.2861 45.3602C92.3528 45.3602 93.2274 45.0189 93.9101 44.3362C94.6354 43.6535 95.0194 42.8429 95.0621 41.9042H95.1901ZM95.1901 11.6322H95.0621C95.0194 10.6509 94.6354 9.8402 93.9101 9.2002C93.2274 8.5602 92.3528 8.2402 91.2861 8.2402C91.2861 8.2402 91.1368 8.2402 90.8381 8.2402C90.5394 8.2402 90.3901 8.2402 90.3901 8.2402V7.6002H96.0221L95.1901 11.6322ZM98.9661 41.9042H99.0941C99.1368 42.8429 99.4994 43.6535 100.182 44.3362C100.907 45.0189 101.803 45.3602 102.87 45.3602C102.87 45.3602 103.019 45.3602 103.318 45.3602C103.617 45.3602 103.766 45.3602 103.766 45.3602V46.0002H98.1341L98.9661 41.9042Z" fill="#1F8505"/>
<path d="M135.154 7.6002V46.0002H131.122V7.6002H135.154ZM149.554 25.8402V27.7602H135.026V25.8402H149.554ZM152.562 7.6002V9.5842H135.026V7.6002H152.562ZM149.554 27.6322V31.2802H148.85V30.4482C148.85 29.7229 148.637 29.1042 148.21 28.5922C147.826 28.0375 147.165 27.7602 146.226 27.7602V27.6322H149.554ZM149.554 22.3202V25.9682H146.226V25.8402C147.165 25.8402 147.826 25.5842 148.21 25.0722C148.637 24.5175 148.85 23.8775 148.85 23.1522V22.3202H149.554ZM152.562 9.3922V13.8082H151.858V12.8482C151.858 11.9522 151.559 11.1842 150.962 10.5442C150.407 9.9042 149.639 9.5842 148.658 9.5842V9.3922H152.562ZM152.562 6.5762V8.2402L145.202 7.6002C146.098 7.6002 147.037 7.55753 148.018 7.4722C148.999 7.3442 149.895 7.19487 150.706 7.0242C151.559 6.85353 152.178 6.7042 152.562 6.5762ZM131.25 41.9042L132.082 46.0002H126.45V45.3602C126.45 45.3602 126.599 45.3602 126.898 45.3602C127.197 45.3602 127.346 45.3602 127.346 45.3602C128.413 45.3602 129.287 45.0189 129.97 44.3362C130.695 43.6535 131.079 42.8429 131.122 41.9042H131.25ZM131.25 11.6322H131.122C131.079 10.6509 130.695 9.8402 129.97 9.2002C129.287 8.5602 128.413 8.2402 127.346 8.2402C127.346 8.2402 127.197 8.2402 126.898 8.2402C126.599 8.2402 126.45 8.2402 126.45 8.2402V7.6002H132.082L131.25 11.6322ZM135.026 41.9042H135.154C135.197 42.8429 135.559 43.6535 136.242 44.3362C136.967 45.0189 137.863 45.3602 138.93 45.3602C138.93 45.3602 139.079 45.3602 139.378 45.3602C139.677 45.3602 139.826 45.3602 139.826 45.3602V46.0002H134.194L135.026 41.9042Z" fill="#1F8505"/>
<path d="M171.214 7.6002V46.0002H167.118V7.6002H171.214ZM188.43 44.0162L188.302 46.0002H171.086V44.0162H188.43ZM185.422 25.8402V27.7602H171.086V25.8402H185.422ZM188.366 7.6002V9.5842H171.086V7.6002H188.366ZM192.014 36.8482L188.494 46.0002H178.766L180.942 44.0162C183.075 44.0162 184.782 43.7175 186.062 43.1202C187.385 42.4802 188.451 41.6269 189.262 40.5602C190.073 39.4509 190.777 38.2135 191.374 36.8482H192.014ZM185.422 27.6322V31.2802H184.718V30.4482C184.718 29.7229 184.505 29.1042 184.078 28.5922C183.651 28.0375 182.99 27.7602 182.094 27.7602V27.6322H185.422ZM185.422 22.3202V25.9682H182.094V25.8402C182.99 25.8402 183.651 25.5842 184.078 25.0722C184.505 24.5175 184.718 23.8775 184.718 23.1522V22.3202H185.422ZM188.366 9.3922V13.8082H187.662V12.8482C187.662 11.9522 187.363 11.1842 186.766 10.5442C186.211 9.9042 185.443 9.5842 184.462 9.5842V9.3922H188.366ZM188.366 6.5762V8.2402L181.07 7.6002C182.393 7.6002 183.801 7.49353 185.294 7.2802C186.787 7.0242 187.811 6.78953 188.366 6.5762ZM167.246 41.9042L168.078 46.0002H162.51V45.3602C162.51 45.3602 162.659 45.3602 162.958 45.3602C163.257 45.3602 163.406 45.3602 163.406 45.3602C164.473 45.3602 165.347 45.0189 166.03 44.3362C166.713 43.6535 167.075 42.8429 167.118 41.9042H167.246ZM167.246 11.6322H167.118C167.075 10.6509 166.713 9.8402 166.03 9.2002C165.347 8.5602 164.473 8.2402 163.406 8.2402C163.406 8.2402 163.257 8.2402 162.958 8.2402C162.659 8.2402 162.51 8.2402 162.51 8.2402V7.6002H168.078L167.246 11.6322Z" fill="#1F8505"/>
<path d="M203.4 6.6402L238.856 40.0482L239.496 46.8962L204.04 13.2962L203.4 6.6402ZM203.528 42.0322V46.0002H198.728V45.3602C198.728 45.3602 198.898 45.3602 199.24 45.3602C199.624 45.3602 199.816 45.3602 199.816 45.3602C200.797 45.3602 201.629 45.0402 202.312 44.4002C202.994 43.7602 203.336 42.9709 203.336 42.0322H203.528ZM206.216 42.0322C206.216 42.9709 206.557 43.7602 207.24 44.4002C207.965 45.0402 208.797 45.3602 209.736 45.3602C209.736 45.3602 209.906 45.3602 210.248 45.3602C210.632 45.3602 210.824 45.3602 210.824 45.3602V46.0002H206.024V42.0322H206.216ZM203.4 6.6402L206.152 10.2242L206.216 46.0002H203.336V14.6402C203.336 12.4642 203.229 10.5869 203.016 9.0082C202.845 7.42953 202.76 6.6402 202.76 6.6402H203.4ZM239.496 7.6002V38.7042C239.496 40.0695 239.538 41.3922 239.624 42.6722C239.709 43.9095 239.794 44.9335 239.88 45.7442C240.008 46.5122 240.072 46.8962 240.072 46.8962H239.496L236.68 43.5042V7.6002H239.496ZM239.304 11.5682V7.6002H244.104V8.2402C244.104 8.2402 243.912 8.2402 243.528 8.2402C243.186 8.2402 243.016 8.2402 243.016 8.2402C242.077 8.2402 241.245 8.5602 240.52 9.2002C239.837 9.8402 239.496 10.6295 239.496 11.5682H239.304ZM236.68 11.5682C236.637 10.6295 236.274 9.8402 235.592 9.2002C234.909 8.5602 234.077 8.2402 233.096 8.2402C233.096 8.2402 232.904 8.2402 232.52 8.2402C232.178 8.2402 232.008 8.2402 232.008 8.2402V7.6002H236.808V11.5682H236.68Z" fill="#1F8505"/>
</svg>
