<svg width="179" height="50" viewBox="0 0 179 50" fill="none" xmlns="http://www.w3.org/2000/svg">
<path d="M4.93602 8.2319C3.82668 8.2319 2.88802 7.8479 2.12002 7.0799C1.35202 6.3119 0.968018 5.37323 0.968018 4.2639C0.968018 3.15457 1.35202 2.2159 2.12002 1.4479C2.88802 0.679899 3.82668 0.295898 4.93602 0.295898C6.00268 0.295898 6.89868 0.679899 7.62402 1.4479C8.39202 2.2159 8.77602 3.15457 8.77602 4.2639C8.77602 5.37323 8.39202 6.3119 7.62402 7.0799C6.89868 7.8479 6.00268 8.2319 4.93602 8.2319ZM7.75202 13.9279V48.9999H1.92802V13.9279H7.75202Z" fill="#1F8505"/>
<path d="M22.03 44.1999H39.246V48.9999H15.374V44.1999L32.398 18.6639H15.502V13.9279H39.118V18.6639L22.03 44.1999Z" fill="#1F8505"/>
<path d="M52.627 1.6399V48.9999H46.803V1.6399H52.627Z" fill="#1F8505"/>
<path d="M93.657 13.9279V48.9999H87.833V43.8159C86.7237 45.6079 85.1664 47.0159 83.161 48.0399C81.1984 49.0212 79.0224 49.5119 76.633 49.5119C73.9024 49.5119 71.449 48.9572 69.273 47.8479C67.097 46.6959 65.369 44.9892 64.089 42.7279C62.8517 40.4666 62.233 37.7146 62.233 34.4719V13.9279H67.993V33.7039C67.993 37.1599 68.8677 39.8266 70.617 41.7039C72.3664 43.5386 74.7557 44.4559 77.785 44.4559C80.8997 44.4559 83.353 43.4959 85.145 41.5759C86.937 39.6559 87.833 36.8612 87.833 33.1919V13.9279H93.657Z" fill="#1F8505"/>
<path d="M101.315 31.3359C101.315 27.7519 102.04 24.6159 103.491 21.9279C104.941 19.1972 106.925 17.0852 109.443 15.5919C112.003 14.0986 114.861 13.3519 118.019 13.3519C120.749 13.3519 123.288 13.9919 125.635 15.2719C127.981 16.5092 129.773 18.1519 131.011 20.1999V1.6399H136.899V48.9999H131.011V42.4079C129.859 44.4986 128.152 46.2266 125.891 47.5919C123.629 48.9146 120.984 49.5759 117.955 49.5759C114.84 49.5759 112.003 48.8079 109.443 47.2719C106.925 45.7359 104.941 43.5812 103.491 40.8079C102.04 38.0346 101.315 34.8772 101.315 31.3359ZM131.011 31.3999C131.011 28.7546 130.477 26.4506 129.411 24.4879C128.344 22.5252 126.893 21.0319 125.059 20.0079C123.267 18.9412 121.283 18.4079 119.107 18.4079C116.931 18.4079 114.947 18.9199 113.155 19.9439C111.363 20.9679 109.933 22.4612 108.867 24.4239C107.8 26.3866 107.267 28.6906 107.267 31.3359C107.267 34.0239 107.8 36.3706 108.867 38.3759C109.933 40.3386 111.363 41.8532 113.155 42.9199C114.947 43.9439 116.931 44.4559 119.107 44.4559C121.283 44.4559 123.267 43.9439 125.059 42.9199C126.893 41.8532 128.344 40.3386 129.411 38.3759C130.477 36.3706 131.011 34.0452 131.011 31.3999Z" fill="#1F8505"/>
<path d="M178.741 30.1199C178.741 31.2292 178.677 32.4026 178.549 33.6399H150.517C150.73 37.0959 151.903 39.8052 154.037 41.7679C156.213 43.6879 158.837 44.6479 161.909 44.6479C164.426 44.6479 166.517 44.0719 168.181 42.9199C169.887 41.7252 171.082 40.1466 171.765 38.1839H178.037C177.098 41.5546 175.221 44.3066 172.405 46.4399C169.589 48.5306 166.09 49.5759 161.909 49.5759C158.581 49.5759 155.594 48.8292 152.949 47.3359C150.346 45.8426 148.298 43.7306 146.805 40.9999C145.311 38.2266 144.565 35.0266 144.565 31.3999C144.565 27.7732 145.29 24.5946 146.741 21.8639C148.191 19.1332 150.218 17.0426 152.821 15.5919C155.466 14.0986 158.495 13.3519 161.909 13.3519C165.237 13.3519 168.181 14.0772 170.741 15.5279C173.301 16.9786 175.263 18.9839 176.629 21.5439C178.037 24.0612 178.741 26.9199 178.741 30.1199ZM172.725 28.9039C172.725 26.6852 172.234 24.7866 171.253 23.2079C170.271 21.5866 168.927 20.3706 167.221 19.5599C165.557 18.7066 163.701 18.2799 161.653 18.2799C158.709 18.2799 156.191 19.2186 154.101 21.0959C152.053 22.9732 150.879 25.5759 150.581 28.9039H172.725Z" fill="#1F8505"/>
</svg>
