<svg width="292" height="55" viewBox="0 0 292 55" fill="none" xmlns="http://www.w3.org/2000/svg">
<path d="M22.496 44.9998H1.76C1.03466 44.9998 0.671997 44.6371 0.671997 43.9118V4.93581C0.671997 4.21048 1.03466 3.84781 1.76 3.84781H5.792C6.51733 3.84781 6.88 4.21048 6.88 4.93581V38.7918C6.88 39.2185 7.136 39.4318 7.648 39.4318H22.496C23.2213 39.4318 23.584 39.8158 23.584 40.5838V43.9118C23.584 44.6371 23.2213 44.9998 22.496 44.9998Z" fill="#1F8505"/>
<path d="M28.5245 6.91981V1.09581C28.5245 0.413144 28.8658 0.0718117 29.5485 0.0718117H33.7085C34.3912 0.0718117 34.7325 0.413144 34.7325 1.09581V6.91981C34.7325 7.64515 34.3912 8.00781 33.7085 8.00781H29.5485C28.8658 8.00781 28.5245 7.64515 28.5245 6.91981ZM28.5245 43.9118V13.4478C28.5245 12.7225 28.8658 12.3598 29.5485 12.3598H33.6445C34.3698 12.3598 34.7325 12.7225 34.7325 13.4478V43.9118C34.7325 44.3385 34.6472 44.6371 34.4765 44.8078C34.3485 44.9358 34.0925 44.9998 33.7085 44.9998H29.6125C28.8872 44.9998 28.5245 44.6371 28.5245 43.9118Z" fill="#1F8505"/>
<path d="M54.406 43.3998H51.526C48.454 43.3998 46.086 42.5465 44.422 40.8398C42.8007 39.0905 41.99 36.6371 41.99 33.4798V22.2798C41.99 19.1225 42.8647 16.6905 44.614 14.9838C46.3633 13.2345 48.7953 12.3598 51.91 12.3598H66.246C67.014 12.3598 67.398 12.7225 67.398 13.4478V45.1278C67.398 48.2425 66.502 50.6531 64.71 52.3598C62.9607 54.1091 60.5287 54.9838 57.414 54.9838H45.382C44.6567 54.9838 44.294 54.6425 44.294 53.9598V50.6318C44.294 49.9065 44.6567 49.5438 45.382 49.5438H56.454C59.5687 49.5438 61.126 47.9651 61.126 44.8078V39.9438H60.87C59.8033 42.2478 57.6487 43.3998 54.406 43.3998ZM61.126 32.5198V18.4398C61.126 18.0131 60.8913 17.7998 60.422 17.7998H52.806C49.7767 17.7998 48.262 19.3785 48.262 22.5358V33.1598C48.262 36.3171 49.7767 37.8958 52.806 37.8958H55.878C59.3767 37.8958 61.126 36.1038 61.126 32.5198Z" fill="#1F8505"/>
<path d="M79.857 44.9998H75.825C75.0997 44.9998 74.737 44.6371 74.737 43.9118V1.09581C74.737 0.370478 75.0997 0.0078125 75.825 0.0078125H79.857C80.5823 0.0078125 80.945 0.370478 80.945 1.09581V15.7518H81.201C82.225 13.4905 84.3797 12.3598 87.665 12.3598H90.481C93.5957 12.3598 95.985 13.2131 97.649 14.9198C99.313 16.6265 100.145 19.0798 100.145 22.2798V43.9118C100.145 44.6371 99.761 44.9998 98.993 44.9998H94.961C94.2357 44.9998 93.873 44.6371 93.873 43.9118V22.5358C93.873 19.3785 92.3157 17.7998 89.201 17.7998H86.193C82.6943 17.7998 80.945 19.6131 80.945 23.2398V43.9118C80.945 44.6371 80.5823 44.9998 79.857 44.9998Z" fill="#1F8505"/>
<path d="M108.119 17.7998H105.048C104.621 17.7998 104.322 17.7358 104.151 17.6078C104.023 17.4371 103.959 17.1598 103.959 16.7758V13.4478C103.959 12.7225 104.322 12.3598 105.048 12.3598H108.119C108.546 12.3598 108.759 12.1465 108.759 11.7198V5.95981C108.759 5.23448 109.143 4.87181 109.911 4.87181H113.943C114.669 4.87181 115.032 5.23448 115.032 5.95981V11.7198C115.032 12.1465 115.266 12.3598 115.735 12.3598H121.688C122.456 12.3598 122.84 12.7225 122.84 13.4478V16.7758C122.84 17.4585 122.456 17.7998 121.688 17.7998H115.735C115.266 17.7998 115.032 18.0131 115.032 18.4398V34.8878C115.032 38.0025 116.631 39.5598 119.831 39.5598H122.327C123.095 39.5598 123.479 39.9225 123.479 40.6478V43.9758C123.479 44.6585 123.095 44.9998 122.327 44.9998H118.871C115.714 44.9998 113.24 44.1465 111.448 42.4398C109.656 40.7331 108.759 38.3225 108.759 35.2078V18.4398C108.759 18.0131 108.546 17.7998 108.119 17.7998Z" fill="#1F8505"/>
<path d="M134.077 44.9998H130.045C129.32 44.9998 128.957 44.6371 128.957 43.9118V1.09581C128.957 0.370478 129.32 0.0078125 130.045 0.0078125H134.077C134.802 0.0078125 135.165 0.370478 135.165 1.09581V15.7518H135.421C136.445 13.4905 138.6 12.3598 141.885 12.3598H144.701C147.816 12.3598 150.205 13.2131 151.869 14.9198C153.533 16.6265 154.365 19.0798 154.365 22.2798V43.9118C154.365 44.6371 153.981 44.9998 153.213 44.9998H149.181C148.456 44.9998 148.093 44.6371 148.093 43.9118V22.5358C148.093 19.3785 146.536 17.7998 143.421 17.7998H140.413C136.914 17.7998 135.165 19.6131 135.165 23.2398V43.9118C135.165 44.6371 134.802 44.9998 134.077 44.9998Z" fill="#1F8505"/>
<path d="M173.156 44.9998H170.66C167.502 44.9998 165.049 44.1251 163.299 42.3758C161.593 40.6265 160.74 38.1945 160.74 35.0798V22.2798C160.74 19.1225 161.593 16.6905 163.299 14.9838C165.049 13.2345 167.502 12.3598 170.66 12.3598H184.995C185.763 12.3598 186.148 12.7225 186.148 13.4478V43.9118C186.148 44.6371 185.763 44.9998 184.995 44.9998H180.964C180.238 44.9998 179.876 44.6371 179.876 43.9118V41.6078H179.62C178.596 43.8691 176.441 44.9998 173.156 44.9998ZM179.876 34.1198V18.4398C179.876 18.0131 179.641 17.7998 179.172 17.7998H171.555C168.483 17.7998 166.947 19.3785 166.947 22.5358V34.8238C166.947 37.9811 168.483 39.5598 171.555 39.5598H174.628C178.126 39.5598 179.876 37.7465 179.876 34.1198Z" fill="#1F8505"/>
<path d="M198.93 44.9998H194.898C194.172 44.9998 193.809 44.6371 193.809 43.9118V1.09581C193.809 0.370478 194.172 0.0078125 194.898 0.0078125H198.93C199.655 0.0078125 200.018 0.370478 200.018 1.09581V43.9118C200.018 44.6371 199.655 44.9998 198.93 44.9998Z" fill="#1F8505"/>
<path d="M205.803 43.9118V42.2478C205.803 41.1811 206.102 40.2638 206.699 39.4958L221.483 18.0558V17.7998H207.467C206.699 17.7998 206.315 17.4158 206.315 16.6478V13.4478C206.315 12.7225 206.699 12.3598 207.467 12.3598H227.691C228.416 12.3598 228.779 12.7225 228.779 13.4478V16.3918C228.779 17.4158 228.523 18.2265 228.011 18.8238L213.995 39.3038V39.5598H228.267C229.035 39.5598 229.419 39.9438 229.419 40.7118V43.9118C229.419 44.6371 229.035 44.9998 228.267 44.9998H206.955C206.187 44.9998 205.803 44.6371 205.803 43.9118Z" fill="#1F8505"/>
<path d="M257.876 44.9998H244.052C240.895 44.9998 238.441 44.1251 236.692 42.3758C234.985 40.6265 234.132 38.1945 234.132 35.0798V22.2798C234.132 19.1225 234.985 16.6905 236.692 14.9838C238.441 13.2345 240.895 12.3598 244.052 12.3598H249.3C252.457 12.3598 254.911 13.2345 256.66 14.9838C258.409 16.6905 259.284 19.1225 259.284 22.2798V30.4078C259.284 31.1758 258.9 31.5598 258.132 31.5598H240.98C240.511 31.5598 240.276 31.7731 240.276 32.1998V34.9518C240.276 38.0665 241.833 39.6238 244.948 39.6238H257.876C258.644 39.6238 259.028 40.0078 259.028 40.7758V43.9758C259.028 44.6585 258.644 44.9998 257.876 44.9998ZM240.98 27.2078H252.436C252.863 27.2078 253.076 26.9945 253.076 26.5678V22.4718C253.076 20.8505 252.713 19.6771 251.988 18.9518C251.263 18.1838 250.089 17.7998 248.468 17.7998H244.948C243.327 17.7998 242.153 18.1838 241.428 18.9518C240.703 19.6771 240.34 20.8505 240.34 22.4718V26.5678C240.34 26.9945 240.553 27.2078 240.98 27.2078Z" fill="#1F8505"/>
<path d="M270.815 44.9998H266.783C266.057 44.9998 265.694 44.6371 265.694 43.9118V13.4478C265.694 12.7225 266.057 12.3598 266.783 12.3598H270.815C271.54 12.3598 271.902 12.7225 271.902 13.4478V15.7518H272.159C273.183 13.4905 275.337 12.3598 278.622 12.3598H281.439C284.553 12.3598 286.943 13.2131 288.607 14.9198C290.271 16.6265 291.103 19.0798 291.103 22.2798V43.9118C291.103 44.6371 290.718 44.9998 289.951 44.9998H285.919C285.193 44.9998 284.831 44.6371 284.831 43.9118V22.5358C284.831 19.3785 283.273 17.7998 280.159 17.7998H277.151C273.652 17.7998 271.902 19.6131 271.902 23.2398V43.9118C271.902 44.6371 271.54 44.9998 270.815 44.9998Z" fill="#1F8505"/>
</svg>
