<svg width="178" height="41" viewBox="0 0 178 41" fill="none" xmlns="http://www.w3.org/2000/svg">
<path d="M2.25 40.0938C1.45833 40.0938 0.885417 40 0.53125 39.8125C0.177083 39.6042 0 39.2917 0 38.875V2.21875C0 1.38542 0.75 0.96875 2.25 0.96875H4.21875C5.44792 0.96875 6.22917 1.3125 6.5625 2L17.0625 20.2188L18.5 23.7188L19.9375 20.5312L30.4688 2C30.8229 1.3125 31.5938 0.96875 32.7812 0.96875H34.625C36.1042 0.96875 36.8438 1.38542 36.8438 2.21875V38.875C36.8438 39.6875 36.1042 40.0938 34.625 40.0938H34.25C33.4583 40.0938 32.8854 40 32.5312 39.8125C32.1771 39.6042 32 39.2917 32 38.875V8.96875L31.9062 9.21875L20.8438 28.4375C20.6979 28.6875 20.5312 28.875 20.3438 29C20.1562 29.1042 19.9167 29.1562 19.625 29.1562H17.4062C16.8438 29.1562 16.4271 28.9167 16.1562 28.4375L4.84375 8.65625V38.875C4.84375 39.6875 4.10417 40.0938 2.625 40.0938H2.25Z" fill="#1F8505"/>
<path d="M59.03 40.3125C54.8425 40.3125 51.6446 39.0625 49.4362 36.5625C47.2487 34.0417 46.155 30.3854 46.155 25.5938C46.155 20.8021 47.2696 17.1146 49.4987 14.5312C51.7279 11.9271 54.905 10.625 59.03 10.625C63.1133 10.625 66.2383 11.9167 68.405 14.5C70.5717 17.0625 71.655 20.7604 71.655 25.5938C71.655 30.4062 70.5821 34.0625 68.4362 36.5625C66.3112 39.0625 63.1758 40.3125 59.03 40.3125ZM58.8737 36.3125C61.5821 36.3125 63.5821 35.4375 64.8737 33.6875C66.1654 31.9167 66.8112 29.1875 66.8112 25.5C66.8112 21.7917 66.1654 19.0521 64.8737 17.2812C63.5821 15.5104 61.5821 14.625 58.8737 14.625C56.1862 14.625 54.2071 15.5104 52.9362 17.2812C51.6654 19.0312 51.03 21.7708 51.03 25.5C51.03 29.2083 51.655 31.9375 52.905 33.6875C54.1758 35.4375 56.1654 36.3125 58.8737 36.3125Z" fill="#1F8505"/>
<path d="M83.2475 40.0938C82.4558 40.0938 81.8829 40 81.5287 39.8125C81.1746 39.6042 80.9975 39.2917 80.9975 38.875V19.375C80.9975 16.9583 80.8829 15.2188 80.6537 14.1562C80.4246 13.0729 80.31 12.4792 80.31 12.375C80.31 11.9167 80.6537 11.5938 81.3412 11.4062C82.0496 11.1979 82.7162 11.0938 83.3412 11.0938C83.8412 11.0938 84.2162 11.3646 84.4662 11.9062C84.7162 12.4271 84.935 13.1667 85.1225 14.125L85.2787 14.7812C87.2579 12.0104 89.4037 10.625 91.7162 10.625C92.7787 10.625 93.5808 10.8229 94.1225 11.2188C94.6642 11.5938 94.935 12.1042 94.935 12.75C94.935 13.375 94.8204 14.0417 94.5912 14.75C94.3829 15.4375 94.1329 15.7812 93.8412 15.7812C93.6954 15.7812 93.435 15.7188 93.06 15.5938C92.7267 15.4479 92.3933 15.3438 92.06 15.2812C91.7267 15.1979 91.2996 15.1562 90.7787 15.1562C89.9246 15.1562 89.1121 15.4062 88.3412 15.9062C87.5912 16.4062 86.9558 16.9583 86.435 17.5625C85.9142 18.1667 85.6537 18.5 85.6537 18.5625V38.875C85.6537 39.2917 85.4767 39.6042 85.1225 39.8125C84.7683 40 84.2162 40.0938 83.4662 40.0938H83.2475Z" fill="#1F8505"/>
<path d="M104.84 40.0938C104.048 40.0938 103.475 40 103.121 39.8125C102.767 39.6042 102.59 39.2917 102.59 38.875V19.375C102.59 16.9583 102.475 15.2188 102.246 14.1562C102.017 13.0729 101.902 12.4792 101.902 12.375C101.902 11.9167 102.246 11.5938 102.934 11.4062C103.642 11.1979 104.309 11.0938 104.934 11.0938C105.434 11.0938 105.809 11.3646 106.059 11.9062C106.309 12.4271 106.527 13.1667 106.715 14.125L106.871 14.7812C108.85 12.0104 110.996 10.625 113.309 10.625C114.371 10.625 115.173 10.8229 115.715 11.2188C116.257 11.5938 116.527 12.1042 116.527 12.75C116.527 13.375 116.413 14.0417 116.184 14.75C115.975 15.4375 115.725 15.7812 115.434 15.7812C115.288 15.7812 115.027 15.7188 114.652 15.5938C114.319 15.4479 113.986 15.3438 113.652 15.2812C113.319 15.1979 112.892 15.1562 112.371 15.1562C111.517 15.1562 110.705 15.4062 109.934 15.9062C109.184 16.4062 108.548 16.9583 108.027 17.5625C107.507 18.1667 107.246 18.5 107.246 18.5625V38.875C107.246 39.2917 107.069 39.6042 106.715 39.8125C106.361 40 105.809 40.0938 105.059 40.0938H104.84Z" fill="#1F8505"/>
<path d="M135.12 40.3125C130.932 40.3125 127.735 39.0625 125.526 36.5625C123.339 34.0417 122.245 30.3854 122.245 25.5938C122.245 20.8021 123.36 17.1146 125.589 14.5312C127.818 11.9271 130.995 10.625 135.12 10.625C139.203 10.625 142.328 11.9167 144.495 14.5C146.662 17.0625 147.745 20.7604 147.745 25.5938C147.745 30.4062 146.672 34.0625 144.526 36.5625C142.401 39.0625 139.266 40.3125 135.12 40.3125ZM134.964 36.3125C137.672 36.3125 139.672 35.4375 140.964 33.6875C142.255 31.9167 142.901 29.1875 142.901 25.5C142.901 21.7917 142.255 19.0521 140.964 17.2812C139.672 15.5104 137.672 14.625 134.964 14.625C132.276 14.625 130.297 15.5104 129.026 17.2812C127.755 19.0312 127.12 21.7708 127.12 25.5C127.12 29.2083 127.745 31.9375 128.995 33.6875C130.266 35.4375 132.255 36.3125 134.964 36.3125Z" fill="#1F8505"/>
<path d="M168.65 40.3125C164.046 40.3125 160.608 39.1354 158.337 36.7812C156.087 34.4062 154.962 30.5938 154.962 25.3438C154.962 20.0312 156.223 16.25 158.744 14C161.265 11.75 164.4 10.625 168.15 10.625C169.546 10.625 170.89 10.75 172.181 11C173.473 11.2292 174.515 11.5417 175.306 11.9375C176.098 12.3333 176.494 12.75 176.494 13.1875C176.494 13.4792 176.39 13.8646 176.181 14.3438C175.994 14.8229 175.754 15.25 175.462 15.625C175.192 15.9792 174.942 16.1562 174.712 16.1562C174.65 16.1562 174.556 16.1354 174.431 16.0938C174.306 16.0312 174.192 15.9792 174.087 15.9375C172.212 15.0625 170.192 14.625 168.025 14.625C165.462 14.625 163.483 15.4688 162.087 17.1562C160.692 18.8229 159.994 21.5104 159.994 25.2188C159.994 27.8438 160.275 29.9688 160.837 31.5938C161.4 33.1979 162.306 34.3854 163.556 35.1562C164.827 35.9271 166.515 36.3125 168.619 36.3125C170.931 36.3125 173.015 35.8333 174.869 34.875C175.056 34.8333 175.192 34.7917 175.275 34.75C175.379 34.6875 175.452 34.6562 175.494 34.6562C175.723 34.6562 175.983 34.8333 176.275 35.1875C176.567 35.5417 176.817 35.9479 177.025 36.4062C177.254 36.8646 177.369 37.2292 177.369 37.5C177.369 37.9375 176.973 38.375 176.181 38.8125C175.39 39.25 174.317 39.6146 172.962 39.9062C171.629 40.1771 170.192 40.3125 168.65 40.3125Z" fill="#1F8505"/>
</svg>
