<svg width="274" height="42" viewBox="0 0 274 42" fill="none" xmlns="http://www.w3.org/2000/svg">
<path d="M12.8239 35.5601C12.8239 36.9254 12.9732 37.9281 13.2719 38.5681C13.5706 39.1654 14.1252 39.5921 14.9359 39.8481C15.7892 40.1041 17.1332 40.2321 18.9679 40.2321C19.0959 40.2321 19.1599 40.3601 19.1599 40.6161C19.1599 40.8721 19.0959 41.0001 18.9679 41.0001C17.2186 41.0001 15.8532 40.9788 14.8719 40.9361L9.30389 40.8721L4.63189 40.9361C3.77855 40.9788 2.62655 41.0001 1.17589 41.0001C1.04789 41.0001 0.983887 40.8721 0.983887 40.6161C0.983887 40.3601 1.04789 40.2321 1.17589 40.2321C2.54122 40.2321 3.52255 40.1254 4.11989 39.9121C4.75989 39.6988 5.18655 39.2934 5.39989 38.6961C5.61322 38.0561 5.71989 37.0961 5.71989 35.8161V6.1841C5.71989 4.90411 5.61322 3.96544 5.39989 3.36811C5.18655 2.77077 4.75989 2.36544 4.11989 2.1521C3.47989 1.8961 2.49855 1.7681 1.17589 1.7681C1.04789 1.7681 0.983887 1.6401 0.983887 1.38411C0.983887 1.12811 1.04789 1.00011 1.17589 1.00011L4.56789 1.06411C6.53055 1.14944 8.08789 1.1921 9.23989 1.1921C10.2639 1.1921 11.4799 1.12811 12.8879 1.00011C13.4426 0.957438 14.1466 0.914771 14.9999 0.872105C15.8532 0.829439 16.8346 0.808105 17.9439 0.808105C22.2959 0.808105 25.7306 1.72544 28.2479 3.5601C30.7652 5.3521 32.0239 8.14677 32.0239 11.9441C32.0239 14.5894 31.3412 16.8294 29.9759 18.6641C28.6106 20.4988 26.8399 21.8854 24.6639 22.8241C22.5306 23.7628 20.3332 24.2321 18.0719 24.2321C16.9199 24.2321 15.9172 24.1254 15.0639 23.9121C14.9786 23.9121 14.9359 23.8054 14.9359 23.5921C14.9359 23.4641 14.9572 23.3361 14.9999 23.2081C15.0852 23.0801 15.1706 23.0374 15.2559 23.0801C15.8959 23.2508 16.6212 23.3361 17.4319 23.3361C19.3946 23.3361 21.0159 22.4188 22.2959 20.5841C23.6186 18.7494 24.2799 16.1468 24.2799 12.7761C24.2799 9.40544 23.5546 6.80277 22.1039 4.96811C20.6959 3.13344 18.6266 2.21611 15.8959 2.21611C14.7012 2.21611 13.8906 2.49344 13.4639 3.0481C13.0372 3.60277 12.8239 4.69077 12.8239 6.3121V35.5601Z" fill="#1F8505"/>
<path d="M51.0149 40.2321C51.1002 40.2321 51.1429 40.3601 51.1429 40.6161C51.1429 40.8721 51.1002 41.0001 51.0149 41.0001C49.7349 41.0001 48.7322 40.9788 48.0069 40.9361L43.6549 40.8721L39.4949 40.9361C38.7269 40.9788 37.6602 41.0001 36.2949 41.0001C36.2096 41.0001 36.1669 40.8721 36.1669 40.6161C36.1669 40.3601 36.2096 40.2321 36.2949 40.2321C37.4896 40.2321 38.3642 40.1254 38.9189 39.9121C39.4736 39.6988 39.8576 39.2934 40.0709 38.6961C40.2842 38.0561 40.3909 37.0961 40.3909 35.8161V16.2321C40.3909 14.9521 40.2842 14.0134 40.0709 13.4161C39.9002 12.8188 39.5376 12.4134 38.9829 12.2001C38.4282 11.9441 37.5749 11.8161 36.4229 11.8161C36.2949 11.8161 36.2309 11.6881 36.2309 11.4321C36.2309 11.1761 36.2949 11.0481 36.4229 11.0481L39.5589 11.1121C41.2656 11.1974 42.6309 11.2401 43.6549 11.2401C44.4656 11.2401 45.2122 11.2188 45.8949 11.1761C46.5776 11.1334 47.1749 11.0908 47.6869 11.0481C49.0949 10.9201 50.4176 10.8561 51.6549 10.8561C54.9829 10.8561 57.5216 11.3894 59.2709 12.4561C61.0202 13.5228 61.8949 15.0588 61.8949 17.0641C61.8949 18.8134 61.2762 20.4348 60.0389 21.9281C58.8442 23.4214 57.1802 24.6161 55.0469 25.5121C52.9562 26.3654 50.6522 26.7921 48.1349 26.7921C46.7696 26.7921 45.5962 26.7068 44.6149 26.5361L44.5509 25.1281C45.6176 25.4268 46.9616 25.5761 48.5829 25.5761C51.0149 25.5761 52.7002 25.0214 53.6389 23.9121C54.5776 22.7601 55.0469 21.0534 55.0469 18.7921C55.0469 14.3548 53.4256 12.1361 50.1829 12.1361C49.2869 12.1361 48.6256 12.2428 48.1989 12.4561C47.7722 12.6694 47.4736 13.0748 47.3029 13.6721C47.1322 14.2268 47.0469 15.1228 47.0469 16.3601V35.8161C47.0469 37.1388 47.1322 38.0988 47.3029 38.6961C47.5162 39.2934 47.8789 39.6988 48.3909 39.9121C48.9456 40.1254 49.8202 40.2321 51.0149 40.2321ZM70.5989 40.2321C70.7269 40.2321 70.7909 40.3601 70.7909 40.6161C70.7909 40.8721 70.7269 41.0001 70.5989 41.0001H60.1029C59.4629 41.0001 58.2896 39.6774 56.5829 37.0321C54.8762 34.3441 52.8709 30.7174 50.5669 26.1521L55.6869 24.8081C58.0336 28.7761 60.0389 31.8694 61.7029 34.0881C63.4096 36.3068 64.9456 37.8854 66.3109 38.8241C67.7189 39.7628 69.1482 40.2321 70.5989 40.2321Z" fill="#1F8505"/>
<path d="M86.2249 41.7681C83.1956 41.7681 80.4862 41.0641 78.0969 39.6561C75.7076 38.2054 73.8516 36.2854 72.5289 33.8961C71.2062 31.4641 70.5449 28.8401 70.5449 26.0241C70.5449 22.7814 71.3769 19.9654 73.0409 17.5761C74.7476 15.1868 76.9022 13.3734 79.5049 12.1361C82.1502 10.8988 84.8596 10.2801 87.6329 10.2801C90.6622 10.2801 93.3289 11.0268 95.6329 12.5201C97.9796 13.9708 99.7929 15.8908 101.073 18.2801C102.353 20.6268 102.993 23.1014 102.993 25.7041C102.993 28.5628 102.246 31.2294 100.753 33.7041C99.2596 36.1361 97.2329 38.0988 94.6729 39.5921C92.1129 41.0428 89.2969 41.7681 86.2249 41.7681ZM87.6969 40.2961C90.0862 40.2961 92.0062 39.1228 93.4569 36.7761C94.9502 34.4294 95.6969 31.1868 95.6969 27.0481C95.6969 24.2321 95.2702 21.6721 94.4169 19.3681C93.5636 17.0641 92.3476 15.2508 90.7689 13.9281C89.2329 12.5628 87.4409 11.8801 85.3929 11.8801C82.9182 11.8801 81.0409 12.9041 79.7609 14.9521C78.4809 17.0001 77.8409 20.0294 77.8409 24.0401C77.8409 27.0694 78.2676 29.8428 79.1209 32.3601C80.0169 34.8348 81.2116 36.7761 82.7049 38.1841C84.1982 39.5921 85.8622 40.2961 87.6969 40.2961Z" fill="#1F8505"/>
<path d="M110.953 12.4561L112.169 12.6481V32.8721C112.169 35.3894 112.553 37.2454 113.321 38.4401C114.132 39.6348 115.369 40.2321 117.033 40.2321C117.161 40.2321 117.225 40.3601 117.225 40.6161C117.225 40.8721 117.161 41.0001 117.033 41.0001C116.009 41.0001 115.22 40.9788 114.665 40.9361L111.593 40.8721L108.521 40.9361C107.924 40.9788 107.071 41.0001 105.961 41.0001C105.876 41.0001 105.833 40.8721 105.833 40.6161C105.833 40.3601 105.876 40.2321 105.961 40.2321C107.668 40.2321 108.927 39.6348 109.737 38.4401C110.548 37.2454 110.953 35.3894 110.953 32.8721V12.4561ZM135.401 41.7041C135.401 41.7894 135.295 41.8534 135.081 41.8961C134.868 41.9388 134.719 41.9174 134.633 41.8321L111.977 16.2961C110.527 14.6748 109.289 13.5228 108.265 12.8401C107.284 12.1574 106.324 11.8161 105.385 11.8161C105.3 11.8161 105.257 11.6881 105.257 11.4321C105.257 11.1761 105.3 11.0481 105.385 11.0481L108.969 11.1121C109.311 11.1121 109.78 11.1121 110.377 11.1121C110.975 11.0694 112.489 11.0481 114.921 11.0481C115.263 11.0481 115.54 11.1548 115.753 11.3681C116.009 11.5814 116.393 11.9868 116.905 12.5841C117.247 13.0961 117.716 13.6934 118.313 14.3761L134.697 32.6801L135.401 41.7041ZM135.401 41.7041L134.121 39.7201V19.2401C134.121 16.6801 133.737 14.8028 132.969 13.6081C132.201 12.4134 130.964 11.8161 129.257 11.8161C129.172 11.8161 129.129 11.6881 129.129 11.4321C129.129 11.1761 129.172 11.0481 129.257 11.0481L131.689 11.1121C132.969 11.1974 133.972 11.2401 134.697 11.2401C135.423 11.2401 136.468 11.1974 137.833 11.1121L140.393 11.0481C140.521 11.0481 140.585 11.1761 140.585 11.4321C140.585 11.6881 140.521 11.8161 140.393 11.8161C138.687 11.8161 137.428 12.4134 136.617 13.6081C135.807 14.8028 135.401 16.6801 135.401 19.2401V41.7041Z" fill="#1F8505"/>
<path d="M151.494 12.3281C149.873 12.3281 148.316 13.0108 146.822 14.3761C145.372 15.7414 144.22 17.5974 143.366 19.9441C143.324 20.0721 143.196 20.1361 142.982 20.1361C142.769 20.1361 142.662 20.0721 142.662 19.9441C142.833 18.5788 143.025 16.8081 143.238 14.6321C143.452 12.4134 143.558 10.7494 143.558 9.64011C143.558 9.42677 143.665 9.3201 143.878 9.3201C144.134 9.3201 144.262 9.42677 144.262 9.64011C144.262 10.1948 144.582 10.5574 145.222 10.7281C145.862 10.8561 146.673 10.9201 147.654 10.9201C151.324 11.0054 154.545 11.0481 157.318 11.0481L162.886 10.9841C163.612 10.9414 164.593 10.9201 165.83 10.9201C167.494 10.9201 168.732 10.8348 169.542 10.6641C170.396 10.4508 170.929 10.0241 171.142 9.38411C171.185 9.25611 171.313 9.19211 171.526 9.19211C171.782 9.19211 171.91 9.25611 171.91 9.38411L171.718 12.5841C171.462 16.3388 171.334 18.7921 171.334 19.9441C171.334 20.0721 171.206 20.1361 170.95 20.1361C170.694 20.1361 170.566 20.0721 170.566 19.9441C170.353 18.6214 169.862 17.3841 169.094 16.2321C168.326 15.0374 167.409 14.0988 166.342 13.4161C165.318 12.6908 164.273 12.3281 163.206 12.3281C162.182 12.3281 161.5 12.6054 161.158 13.1601C160.817 13.6721 160.646 14.6961 160.646 16.2321V35.8161C160.646 37.0961 160.753 38.0561 160.966 38.6961C161.222 39.2934 161.67 39.6988 162.31 39.9121C162.95 40.1254 163.974 40.2321 165.382 40.2321C165.51 40.2321 165.574 40.3601 165.574 40.6161C165.574 40.8721 165.51 41.0001 165.382 41.0001C163.974 41.0001 162.865 40.9788 162.054 40.9361L157.254 40.8721L152.582 40.9361C151.772 40.9788 150.62 41.0001 149.126 41.0001C149.041 41.0001 148.998 40.8721 148.998 40.6161C148.998 40.3601 149.041 40.2321 149.126 40.2321C150.577 40.2321 151.622 40.1254 152.262 39.9121C152.945 39.6988 153.393 39.2934 153.606 38.6961C153.862 38.0561 153.99 37.0961 153.99 35.8161V16.1041C153.99 14.5254 153.841 13.5014 153.542 13.0321C153.244 12.5628 152.561 12.3281 151.494 12.3281Z" fill="#1F8505"/>
<path d="M175.107 41.0001C175.022 41.0001 174.979 40.8721 174.979 40.6161C174.979 40.3601 175.022 40.2321 175.107 40.2321C176.345 40.2321 177.241 40.1254 177.795 39.9121C178.35 39.6988 178.734 39.2934 178.947 38.6961C179.161 38.0561 179.267 37.0961 179.267 35.8161V16.2321C179.267 14.9521 179.161 14.0134 178.947 13.4161C178.734 12.8188 178.329 12.4134 177.731 12.2001C177.177 11.9441 176.302 11.8161 175.107 11.8161C175.022 11.8161 174.979 11.6881 174.979 11.4321C174.979 11.1761 175.022 11.0481 175.107 11.0481H198.019C198.446 11.0481 198.659 11.2188 198.659 11.5601L198.723 15.5281C198.766 16.3388 198.787 17.3628 198.787 18.6001C198.787 18.7281 198.659 18.7921 198.403 18.7921C198.19 18.7921 198.062 18.7281 198.019 18.6001C197.209 16.7228 195.971 15.1441 194.307 13.8641C192.643 12.5414 190.958 11.8801 189.251 11.8801H188.803C187.865 11.8801 187.161 12.0081 186.691 12.2641C186.265 12.4774 185.966 12.8828 185.795 13.4801C185.667 14.0774 185.603 15.0161 185.603 16.2961V35.5601C185.603 36.8401 185.667 37.7788 185.795 38.3761C185.966 38.9734 186.265 39.4001 186.691 39.6561C187.161 39.8694 187.865 39.9761 188.803 39.9761H189.507C191.513 39.9761 193.497 39.2721 195.459 37.8641C197.422 36.4134 198.873 34.6214 199.811 32.4881C199.897 32.3601 200.046 32.2961 200.259 32.2961C200.473 32.2961 200.579 32.3601 200.579 32.4881C200.281 35.5601 200.131 38.0774 200.131 40.0401C200.131 40.3814 200.067 40.6374 199.939 40.8081C199.811 40.9361 199.555 41.0001 199.171 41.0001H175.107ZM195.395 27.3041C195.182 27.3041 194.137 27.1761 192.259 26.9201C190.425 26.6641 187.267 26.5361 182.787 26.5361V24.9361C187.267 24.9361 190.425 24.8294 192.259 24.6161C194.137 24.3601 195.182 24.2321 195.395 24.2321C195.694 24.2321 195.843 24.7014 195.843 25.6401C195.843 26.0668 195.801 26.4508 195.715 26.7921C195.63 27.1334 195.523 27.3041 195.395 27.3041Z" fill="#1F8505"/>
<path d="M219.515 40.2321C219.6 40.2321 219.643 40.3601 219.643 40.6161C219.643 40.8721 219.6 41.0001 219.515 41.0001C218.235 41.0001 217.232 40.9788 216.507 40.9361L212.155 40.8721L207.995 40.9361C207.227 40.9788 206.16 41.0001 204.795 41.0001C204.71 41.0001 204.667 40.8721 204.667 40.6161C204.667 40.3601 204.71 40.2321 204.795 40.2321C205.99 40.2321 206.864 40.1254 207.419 39.9121C207.974 39.6988 208.358 39.2934 208.571 38.6961C208.784 38.0561 208.891 37.0961 208.891 35.8161V16.2321C208.891 14.9521 208.784 14.0134 208.571 13.4161C208.4 12.8188 208.038 12.4134 207.483 12.2001C206.928 11.9441 206.075 11.8161 204.923 11.8161C204.795 11.8161 204.731 11.6881 204.731 11.4321C204.731 11.1761 204.795 11.0481 204.923 11.0481L208.059 11.1121C209.766 11.1974 211.131 11.2401 212.155 11.2401C212.966 11.2401 213.712 11.2188 214.395 11.1761C215.078 11.1334 215.675 11.0908 216.187 11.0481C217.595 10.9201 218.918 10.8561 220.155 10.8561C223.483 10.8561 226.022 11.3894 227.771 12.4561C229.52 13.5228 230.395 15.0588 230.395 17.0641C230.395 18.8134 229.776 20.4348 228.539 21.9281C227.344 23.4214 225.68 24.6161 223.547 25.5121C221.456 26.3654 219.152 26.7921 216.635 26.7921C215.27 26.7921 214.096 26.7068 213.115 26.5361L213.051 25.1281C214.118 25.4268 215.462 25.5761 217.083 25.5761C219.515 25.5761 221.2 25.0214 222.139 23.9121C223.078 22.7601 223.547 21.0534 223.547 18.7921C223.547 14.3548 221.926 12.1361 218.683 12.1361C217.787 12.1361 217.126 12.2428 216.699 12.4561C216.272 12.6694 215.974 13.0748 215.803 13.6721C215.632 14.2268 215.547 15.1228 215.547 16.3601V35.8161C215.547 37.1388 215.632 38.0988 215.803 38.6961C216.016 39.2934 216.379 39.6988 216.891 39.9121C217.446 40.1254 218.32 40.2321 219.515 40.2321ZM239.099 40.2321C239.227 40.2321 239.291 40.3601 239.291 40.6161C239.291 40.8721 239.227 41.0001 239.099 41.0001H228.603C227.963 41.0001 226.79 39.6774 225.083 37.0321C223.376 34.3441 221.371 30.7174 219.067 26.1521L224.187 24.8081C226.534 28.7761 228.539 31.8694 230.203 34.0881C231.91 36.3068 233.446 37.8854 234.811 38.8241C236.219 39.7628 237.648 40.2321 239.099 40.2321Z" fill="#1F8505"/>
<path d="M249.395 25.7041H261.107L261.555 27.3681H248.435L249.395 25.7041ZM273.523 40.2321C273.736 40.2321 273.843 40.3601 273.843 40.6161C273.843 40.8721 273.736 41.0001 273.523 41.0001C272.627 41.0001 271.283 40.9574 269.491 40.8721C267.614 40.7868 266.291 40.7441 265.523 40.7441C264.798 40.7441 263.667 40.7868 262.131 40.8721C260.68 40.9574 259.656 41.0001 259.059 41.0001C258.888 41.0001 258.803 40.8721 258.803 40.6161C258.803 40.3601 258.888 40.2321 259.059 40.2321C260.04 40.2321 260.723 40.1254 261.107 39.9121C261.534 39.6561 261.747 39.2934 261.747 38.8241C261.747 38.2268 261.384 37.1601 260.659 35.6241L252.531 18.1521L255.347 13.2241L246.963 33.1281C246.195 34.9201 245.811 36.3281 245.811 37.3521C245.811 38.3761 246.174 39.1228 246.899 39.5921C247.624 40.0188 248.755 40.2321 250.291 40.2321C250.504 40.2321 250.611 40.3601 250.611 40.6161C250.611 40.8721 250.504 41.0001 250.291 41.0001C249.694 41.0001 248.84 40.9574 247.731 40.8721C246.536 40.7868 245.427 40.7441 244.403 40.7441C243.336 40.7441 242.078 40.7868 240.627 40.8721C239.347 40.9574 238.302 41.0001 237.491 41.0001C237.278 41.0001 237.171 40.8721 237.171 40.6161C237.171 40.3601 237.278 40.2321 237.491 40.2321C238.814 40.2321 239.88 40.0401 240.691 39.6561C241.502 39.2721 242.248 38.5468 242.931 37.4801C243.656 36.4134 244.488 34.7708 245.427 32.5521L255.027 10.0881C255.112 9.91744 255.24 9.83211 255.411 9.83211C255.582 9.83211 255.71 9.91744 255.795 10.0881L266.035 32.2321C267.102 34.5361 267.976 36.2428 268.659 37.3521C269.384 38.4614 270.11 39.2294 270.835 39.6561C271.56 40.0401 272.456 40.2321 273.523 40.2321Z" fill="#1F8505"/>
</svg>
