<svg width="32" height="32" viewBox="0 0 32 32" fill="none" xmlns="http://www.w3.org/2000/svg">
<g clip-path="url(#clip0_169_261)">
<path d="M31.744 14.3947C29.808 13.3333 28.632 12.0747 28.0933 10.648C27.5573 9.22933 27.64 7.62933 28.216 5.872C28.2987 5.69333 28.2613 5.47467 28.112 5.328L26.6747 3.888C26.5467 3.76 26.3547 3.70933 26.176 3.77333C24.3973 4.36267 22.7787 4.44533 21.3547 3.90933C19.9333 3.37067 18.68 2.208 17.6187 0.282667C17.5413 0.117333 17.3707 0 17.1707 0H14.9653C14.7147 0 14.4987 0.192 14.48 0.448C14.3253 2.16267 13.9413 3.84533 13.2453 5.46133C12.5547 7.07467 11.5387 8.63467 10.1173 10.1173C8.63467 11.5387 7.07467 12.5467 5.46133 13.2453C3.856 13.9413 2.19467 14.32 0.493333 14.472C0.218667 14.472 0 14.696 0 14.9653V17.1707C0 17.3493 0.0906667 17.5173 0.256 17.6053C2.19467 18.6667 3.37067 19.928 3.90933 21.3547C4.44533 22.7733 4.36267 24.3707 3.78667 26.1307C3.704 26.3093 3.74133 26.528 3.888 26.6747L4.60533 27.3973L5.328 28.112C5.456 28.24 5.648 28.2907 5.82667 28.2293C7.60533 27.64 9.22133 27.5573 10.648 28.0933C12.0693 28.632 13.3227 29.7947 14.384 31.72C14.4587 31.8853 14.632 32 14.832 32H17.0373C17.2853 32 17.504 31.808 17.5227 31.5547C17.6773 29.84 18.0613 28.1573 18.7573 26.5387C19.448 24.928 20.464 23.368 21.8853 21.8853C23.368 20.464 24.928 19.448 26.5387 18.7573C28.144 18.0613 29.808 17.6827 31.5093 17.5307C31.784 17.5307 32 17.3067 32 17.0373V14.832C32 14.6507 31.912 14.4853 31.744 14.3947ZM31.016 16.5893C29.3547 16.776 27.7227 17.1707 26.1493 17.848C24.4293 18.592 22.7733 19.664 21.1947 21.1813L21.1813 21.1947C19.6667 22.7733 18.592 24.4293 17.848 26.1493C17.1707 27.7227 16.776 29.3467 16.5893 31.016H15.1173C13.96 29.008 12.5733 27.768 10.9947 27.1733C9.42667 26.5787 7.688 26.6293 5.81333 27.2053L4.79733 26.1893C5.37333 24.3147 5.424 22.576 4.82933 21.008C4.23467 19.4293 2.99467 18.04 0.986667 16.8827V15.4133C2.656 15.2267 4.28 14.832 5.85333 14.152C7.57333 13.4107 9.22933 12.336 10.808 10.8213L10.8213 10.808C12.336 9.22933 13.4107 7.57333 14.152 5.85333C14.832 4.28 15.2267 2.648 15.4133 0.986667H16.8827C18.04 2.99467 19.4293 4.23467 21.008 4.82933C22.576 5.424 24.3147 5.37333 26.1893 4.79733L27.2053 5.81333C26.6293 7.688 26.5787 9.42667 27.1733 10.9947C27.768 12.5733 29.008 13.96 31.016 15.1173V16.5893Z" fill="white"/>
<path d="M27.1732 10.9946C26.5786 9.42657 26.6292 7.68791 27.2052 5.81324L26.1892 4.79724C24.3146 5.37324 22.5759 5.42391 21.0079 4.82924C19.4292 4.23457 18.0399 2.99457 16.8826 0.986572H15.4132C15.2266 2.64791 14.8319 4.27991 14.1519 5.85324C13.4106 7.57324 12.3359 9.22924 10.8212 10.8079L10.8079 10.8212C9.22924 12.3359 7.57324 13.4106 5.85324 14.1519C4.27991 14.8319 2.65591 15.2266 0.986572 15.4132V16.8826C2.99457 18.0399 4.23457 19.4292 4.82924 21.0079C5.42391 22.5759 5.37324 24.3146 4.79724 26.1892L5.81324 27.2052C7.68791 26.6292 9.42657 26.5786 10.9946 27.1732C12.5732 27.7679 13.9599 29.0079 15.1172 31.0159H16.5892C16.7759 29.3466 17.1706 27.7226 17.8479 26.1492C18.5919 24.4292 19.6666 22.7732 21.1812 21.1946L21.1946 21.1812C22.7732 19.6639 24.4292 18.5919 26.1492 17.8479C27.7226 17.1706 29.3546 16.7759 31.0159 16.5892V15.1172C29.0079 13.9599 27.7679 12.5732 27.1732 10.9946ZM6.37057 17.0372C6.23724 17.1146 6.10924 17.1839 5.97324 17.2612C6.05591 17.3892 6.12791 17.5172 6.20524 17.6506C6.23724 17.7012 6.25591 17.7652 6.26124 17.8292C6.31191 18.3599 5.62124 18.5652 5.36524 18.1172C5.21857 17.8479 5.05857 17.5946 4.88791 17.3386C4.86124 17.3066 4.84257 17.2746 4.82924 17.2346C4.79724 17.1386 4.79191 17.0372 4.81591 16.9466C4.84257 16.8586 4.89324 16.7759 4.97591 16.7039C5.00257 16.6799 5.03457 16.6586 5.07191 16.6479C5.34657 16.5119 5.61591 16.3652 5.87724 16.2132C6.31991 15.9492 6.81857 16.4746 6.51191 16.9092C6.47191 16.9599 6.42124 17.0052 6.37057 17.0372ZM6.93324 20.8346C6.84257 20.5466 6.74124 20.2586 6.62657 19.9839C6.47191 19.6266 6.78657 19.2506 7.17057 19.3252C7.31724 19.3572 7.44524 19.4666 7.50924 19.6079C7.63724 19.9146 7.75191 20.2346 7.84791 20.5599C7.86657 20.6239 7.87191 20.6879 7.86657 20.7519C7.79724 21.2772 7.07991 21.3279 6.93324 20.8346ZM8.69057 24.7119C8.38391 24.7119 8.08524 24.7172 7.77591 24.7439C7.73857 24.7439 7.70124 24.7439 7.66124 24.7359C7.55991 24.7172 7.46924 24.6719 7.40524 24.6026C7.34124 24.5386 7.29057 24.4479 7.27191 24.3466C7.26657 24.3066 7.26657 24.2692 7.27191 24.2319C7.29057 23.9252 7.30391 23.6239 7.29857 23.3172C7.29857 22.7999 7.99457 22.6319 8.21857 23.1172C8.24524 23.1759 8.25591 23.2399 8.25591 23.3039V23.7572C8.40257 23.7519 8.55724 23.7519 8.70391 23.7519C8.76791 23.7519 8.83191 23.7652 8.89057 23.7892C9.37591 24.0132 9.21057 24.7172 8.69057 24.7119ZM9.50924 15.6239C9.23457 15.7972 8.94657 15.9626 8.65857 16.1226C8.36524 16.2879 7.98924 16.0906 7.95724 15.7519C7.93057 15.5599 8.02657 15.3732 8.19991 15.2852C8.47457 15.1306 8.73591 14.9706 9.00524 14.8106C9.06124 14.7732 9.13324 14.7546 9.20257 14.7412C9.71457 14.6906 9.93857 15.3546 9.50924 15.6239ZM11.2746 13.1626C11.5119 12.9572 11.7412 12.7519 11.9732 12.5359C12.0239 12.4906 12.0879 12.4506 12.1572 12.4319C12.6506 12.2852 12.9946 12.8986 12.6239 13.2372C12.3866 13.4612 12.1439 13.6799 11.8959 13.8906C11.5946 14.1412 11.1466 13.9599 11.1012 13.5706C11.0906 13.4106 11.1546 13.2639 11.2746 13.1626ZM12.2212 25.4719C11.9466 25.3439 11.6719 25.2346 11.3786 25.1386C11.2932 25.1066 11.2239 25.0612 11.1652 24.9919C10.8532 24.6266 11.2239 24.0719 11.6772 24.2239C12.0052 24.3332 12.3119 24.4559 12.6186 24.5946C12.7146 24.6399 12.7786 24.6986 12.8292 24.7812C13.0772 25.1839 12.6506 25.6639 12.2212 25.4719ZM15.7652 7.25857C15.8932 6.97857 16.0212 6.69591 16.1412 6.40791C16.1919 6.27991 16.2826 6.19724 16.4026 6.14657C16.7999 5.98657 17.1892 6.38391 17.0292 6.77324C16.9039 7.07457 16.7679 7.37324 16.6266 7.66924C16.5839 7.76524 16.5252 7.82924 16.4346 7.87991C16.0319 8.11724 15.5652 7.68791 15.7652 7.25857ZM13.8212 10.4426C14.0052 10.1946 14.1919 9.94391 14.3706 9.69057C14.4079 9.62657 14.4666 9.57324 14.5306 9.53591C14.9839 9.29857 15.4372 9.81591 15.1572 10.2266C14.9786 10.5012 14.7866 10.7626 14.5866 11.0266C14.5226 11.1092 14.4532 11.1546 14.3572 11.1919C13.9092 11.3386 13.5386 10.8212 13.8212 10.4426ZM15.9572 25.7972C15.8212 26.0799 15.7066 26.3546 15.5972 26.6426C15.5866 26.6799 15.5732 26.7199 15.5466 26.7519C15.4906 26.8346 15.4132 26.8906 15.3226 26.9306C15.2346 26.9626 15.1386 26.9679 15.0346 26.9412C14.9972 26.9306 14.9599 26.9172 14.9279 26.8986C14.6586 26.7519 14.3892 26.6159 14.1012 26.4959C13.6346 26.2826 13.7759 25.5812 14.3066 25.5732C14.3706 25.5732 14.4346 25.5866 14.4906 25.6132C14.6266 25.6772 14.7679 25.7412 14.9012 25.8052C14.9599 25.6639 15.0212 25.5306 15.0852 25.3892C15.1119 25.3306 15.1492 25.2799 15.2026 25.2426C15.6052 24.8906 16.1679 25.3306 15.9572 25.7972ZM17.3119 22.7999C17.1466 23.0612 16.9866 23.3306 16.8319 23.5972C16.7999 23.6692 16.7492 23.7119 16.6906 23.7572C16.2639 24.0452 15.7519 23.5732 15.9999 23.1306C16.1599 22.8426 16.3279 22.5626 16.5066 22.2879C16.5759 22.1732 16.6799 22.1092 16.8079 22.0772C17.2212 21.9866 17.5412 22.4399 17.3119 22.7999ZM17.7732 6.37057C17.6186 5.93591 18.1119 5.55191 18.4959 5.80791C18.7439 5.98124 18.9999 6.14124 19.2692 6.27991C19.5759 6.44791 19.6132 6.85591 19.3466 7.07457C19.1919 7.20257 18.9946 7.22124 18.8159 7.12524C18.5199 6.96524 18.2399 6.79191 17.9572 6.59991C17.8692 6.54391 17.8159 6.46657 17.7732 6.37057ZM19.6212 19.8559C19.4106 20.0879 19.1972 20.3172 18.9946 20.5546C18.7386 20.8479 18.2639 20.7332 18.1679 20.3626C18.1252 20.2079 18.1626 20.0426 18.2639 19.9279C18.4826 19.6772 18.6986 19.4346 18.9226 19.1972C18.9679 19.1599 19.0186 19.1226 19.0692 19.0959C19.5626 18.8799 19.9786 19.4799 19.6212 19.8559ZM22.5039 17.5039C22.2479 17.6772 21.9919 17.8559 21.7439 18.0399C21.6852 18.0799 21.6346 18.1039 21.5706 18.1252C21.0586 18.2452 20.7519 17.5866 21.1679 17.2746C21.4372 17.0746 21.6986 16.8906 21.9732 16.7039C22.0826 16.6346 22.2106 16.6159 22.3386 16.6346C22.7546 16.7306 22.8559 17.2666 22.5039 17.5039ZM23.1572 7.91724C23.0852 8.11724 22.8826 8.25057 22.6719 8.23191C22.3332 8.20524 22.0052 8.16791 21.6746 8.10924C21.3546 8.05857 21.1812 7.70657 21.3279 7.41857C21.4239 7.23457 21.6292 7.13057 21.8319 7.17057C22.1332 7.22124 22.4346 7.25324 22.7359 7.27724C23.0532 7.29857 23.2586 7.61857 23.1572 7.91724ZM23.8532 10.0852C23.8026 9.75191 23.7706 9.42124 23.7572 9.08257C23.7386 8.77591 24.0266 8.52524 24.3332 8.58924C24.5439 8.63457 24.7039 8.81857 24.7119 9.03724C24.7306 9.34391 24.7546 9.64524 24.7999 9.94391C24.8186 10.0612 24.7946 10.1626 24.7359 10.2639C24.4932 10.6479 23.9172 10.5279 23.8532 10.0852ZM25.8106 15.7759C25.5306 15.8852 25.2212 16.0079 24.9546 16.1412C24.6666 16.2772 24.3332 16.0959 24.2772 15.7892C24.2372 15.5786 24.3519 15.3626 24.5519 15.2719C24.8506 15.1306 25.1519 15.0026 25.4532 14.8826C25.7839 14.7546 26.1359 15.0106 26.1119 15.3679C26.0986 15.5466 25.9759 15.7066 25.8106 15.7759ZM25.5866 14.0506C25.4532 14.0239 25.3386 13.9546 25.2612 13.8399C25.0826 13.5572 24.9092 13.2639 24.7626 12.9626C24.7306 12.9066 24.7172 12.8479 24.7119 12.7839C24.6852 12.2532 25.3812 12.0746 25.6186 12.5279C25.7519 12.8026 25.9066 13.0666 26.0666 13.3226C26.2906 13.6719 25.9972 14.1199 25.5866 14.0506Z" fill="white"/>
</g>
<defs>
<clipPath id="clip0_169_261">
<rect width="32" height="32" fill="white"/>
</clipPath>
</defs>
</svg>
