<svg width="24" height="24" viewBox="0 0 24 24" fill="none" xmlns="http://www.w3.org/2000/svg">
<g clip-path="url(#clip0_113_100)">
<path d="M23.808 10.796C22.356 10 21.474 9.056 21.07 7.986C20.668 6.922 20.73 5.722 21.162 4.404C21.224 4.27 21.196 4.106 21.084 3.996L20.006 2.916C19.91 2.82 19.766 2.782 19.632 2.83C18.298 3.272 17.084 3.334 16.016 2.932C14.95 2.528 14.01 1.656 13.214 0.212C13.156 0.088 13.028 0 12.878 0H11.224C11.036 0 10.874 0.144 10.86 0.336C10.744 1.622 10.456 2.884 9.934 4.096C9.416 5.306 8.654 6.476 7.588 7.588C6.476 8.654 5.306 9.41 4.096 9.934C2.892 10.456 1.646 10.74 0.37 10.854C0.164 10.854 0 11.022 0 11.224V12.878C0 13.012 0.068 13.138 0.192 13.204C1.646 14 2.528 14.946 2.932 16.016C3.334 17.08 3.272 18.278 2.84 19.598C2.778 19.732 2.806 19.896 2.916 20.006L3.454 20.548L3.996 21.084C4.092 21.18 4.236 21.218 4.37 21.172C5.704 20.73 6.916 20.668 7.986 21.07C9.052 21.474 9.992 22.346 10.788 23.79C10.844 23.914 10.974 24 11.124 24H12.778C12.964 24 13.128 23.856 13.142 23.666C13.258 22.38 13.546 21.118 14.068 19.904C14.586 18.696 15.348 17.526 16.414 16.414C17.526 15.348 18.696 14.586 19.904 14.068C21.108 13.546 22.356 13.262 23.632 13.148C23.838 13.148 24 12.98 24 12.778V11.124C24 10.988 23.934 10.864 23.808 10.796ZM23.262 12.442C22.016 12.582 20.792 12.878 19.612 13.386C18.322 13.944 17.08 14.748 15.896 15.886L15.886 15.896C14.75 17.08 13.944 18.322 13.386 19.612C12.878 20.792 12.582 22.01 12.442 23.262H11.338C10.47 21.756 9.43 20.826 8.246 20.38C7.07 19.934 5.766 19.972 4.36 20.404L3.598 19.642C4.03 18.236 4.068 16.932 3.622 15.756C3.176 14.572 2.246 13.53 0.74 12.662V11.56C1.992 11.42 3.21 11.124 4.39 10.614C5.68 10.058 6.922 9.252 8.106 8.116L8.116 8.106C9.252 6.922 10.058 5.68 10.614 4.39C11.124 3.21 11.42 1.986 11.56 0.74H12.662C13.53 2.246 14.572 3.176 15.756 3.622C16.932 4.068 18.236 4.03 19.642 3.598L20.404 4.36C19.972 5.766 19.934 7.07 20.38 8.246C20.826 9.43 21.756 10.47 23.262 11.338V12.442Z" fill="white"/>
<path d="M20.38 8.24623C19.934 7.07023 19.972 5.76623 20.404 4.36023L19.642 3.59823C18.236 4.03023 16.932 4.06823 15.756 3.62223C14.572 3.17623 13.53 2.24623 12.662 0.740234H11.56C11.42 1.98623 11.124 3.21023 10.614 4.39023C10.058 5.68023 9.252 6.92223 8.116 8.10623L8.106 8.11623C6.922 9.25223 5.68 10.0582 4.39 10.6142C3.21 11.1242 1.992 11.4202 0.739998 11.5602V12.6622C2.246 13.5302 3.176 14.5722 3.622 15.7562C4.068 16.9322 4.03 18.2362 3.598 19.6422L4.36 20.4042C5.766 19.9722 7.07 19.9342 8.246 20.3802C9.43 20.8262 10.47 21.7562 11.338 23.2622H12.442C12.582 22.0102 12.878 20.7922 13.386 19.6122C13.944 18.3222 14.75 17.0802 15.886 15.8962L15.896 15.8862C17.08 14.7482 18.322 13.9442 19.612 13.3862C20.792 12.8782 22.016 12.5822 23.262 12.4422V11.3382C21.756 10.4702 20.826 9.43023 20.38 8.24623ZM4.778 12.7782C4.678 12.8362 4.582 12.8882 4.48 12.9462C4.542 13.0422 4.596 13.1382 4.654 13.2382C4.678 13.2762 4.692 13.3242 4.696 13.3722C4.734 13.7702 4.216 13.9242 4.024 13.5882C3.914 13.3862 3.794 13.1962 3.666 13.0042C3.646 12.9802 3.632 12.9562 3.622 12.9262C3.598 12.8542 3.594 12.7782 3.612 12.7102C3.632 12.6442 3.67 12.5822 3.732 12.5282C3.752 12.5102 3.776 12.4942 3.804 12.4862C4.01 12.3842 4.212 12.2742 4.408 12.1602C4.74 11.9622 5.114 12.3562 4.884 12.6822C4.854 12.7202 4.816 12.7542 4.778 12.7782ZM5.2 15.6262C5.132 15.4102 5.056 15.1942 4.97 14.9882C4.854 14.7202 5.09 14.4382 5.378 14.4942C5.488 14.5182 5.584 14.6002 5.632 14.7062C5.728 14.9362 5.814 15.1762 5.886 15.4202C5.9 15.4682 5.904 15.5162 5.9 15.5642C5.848 15.9582 5.31 15.9962 5.2 15.6262ZM6.518 18.5342C6.288 18.5342 6.064 18.5382 5.832 18.5582C5.804 18.5582 5.776 18.5582 5.746 18.5522C5.67 18.5382 5.602 18.5042 5.554 18.4522C5.506 18.4042 5.468 18.3362 5.454 18.2602C5.45 18.2302 5.45 18.2022 5.454 18.1742C5.468 17.9442 5.478 17.7182 5.474 17.4882C5.474 17.1002 5.996 16.9742 6.164 17.3382C6.184 17.3822 6.192 17.4302 6.192 17.4782V17.8182C6.302 17.8142 6.418 17.8142 6.528 17.8142C6.576 17.8142 6.624 17.8242 6.668 17.8422C7.032 18.0102 6.908 18.5382 6.518 18.5342ZM7.132 11.7182C6.926 11.8482 6.71 11.9722 6.494 12.0922C6.274 12.2162 5.992 12.0682 5.968 11.8142C5.948 11.6702 6.02 11.5302 6.15 11.4642C6.356 11.3482 6.552 11.2282 6.754 11.1082C6.796 11.0802 6.85 11.0662 6.902 11.0562C7.286 11.0182 7.454 11.5162 7.132 11.7182ZM8.456 9.87223C8.634 9.71823 8.806 9.56423 8.98 9.40223C9.018 9.36823 9.066 9.33823 9.118 9.32423C9.488 9.21423 9.746 9.67423 9.468 9.92823C9.29 10.0962 9.108 10.2602 8.922 10.4182C8.696 10.6062 8.36 10.4702 8.326 10.1782C8.318 10.0582 8.366 9.94823 8.456 9.87223ZM9.166 19.1042C8.96 19.0082 8.754 18.9262 8.534 18.8542C8.47 18.8302 8.418 18.7962 8.374 18.7442C8.14 18.4702 8.418 18.0542 8.758 18.1682C9.004 18.2502 9.234 18.3422 9.464 18.4462C9.536 18.4802 9.584 18.5242 9.622 18.5862C9.808 18.8882 9.488 19.2482 9.166 19.1042ZM11.824 5.44423C11.92 5.23423 12.016 5.02223 12.106 4.80623C12.144 4.71023 12.212 4.64823 12.302 4.61023C12.6 4.49023 12.892 4.78823 12.772 5.08023C12.678 5.30623 12.576 5.53023 12.47 5.75223C12.438 5.82423 12.394 5.87223 12.326 5.91023C12.024 6.08823 11.674 5.76623 11.824 5.44423ZM10.366 7.83223C10.504 7.64623 10.644 7.45823 10.778 7.26823C10.806 7.22023 10.85 7.18023 10.898 7.15223C11.238 6.97423 11.578 7.36223 11.368 7.67023C11.234 7.87623 11.09 8.07223 10.94 8.27023C10.892 8.33223 10.84 8.36623 10.768 8.39423C10.432 8.50423 10.154 8.11623 10.366 7.83223ZM11.968 19.3482C11.866 19.5602 11.78 19.7662 11.698 19.9822C11.69 20.0102 11.68 20.0402 11.66 20.0642C11.618 20.1262 11.56 20.1682 11.492 20.1982C11.426 20.2222 11.354 20.2262 11.276 20.2062C11.248 20.1982 11.22 20.1882 11.196 20.1742C10.994 20.0642 10.792 19.9622 10.576 19.8722C10.226 19.7122 10.332 19.1862 10.73 19.1802C10.778 19.1802 10.826 19.1902 10.868 19.2102C10.97 19.2582 11.076 19.3062 11.176 19.3542C11.22 19.2482 11.266 19.1482 11.314 19.0422C11.334 18.9982 11.362 18.9602 11.402 18.9322C11.704 18.6682 12.126 18.9982 11.968 19.3482ZM12.984 17.1002C12.86 17.2962 12.74 17.4982 12.624 17.6982C12.6 17.7522 12.562 17.7842 12.518 17.8182C12.198 18.0342 11.814 17.6802 12 17.3482C12.12 17.1322 12.246 16.9222 12.38 16.7162C12.432 16.6302 12.51 16.5822 12.606 16.5582C12.916 16.4902 13.156 16.8302 12.984 17.1002ZM13.33 4.77823C13.214 4.45223 13.584 4.16423 13.872 4.35623C14.058 4.48623 14.25 4.60623 14.452 4.71023C14.682 4.83623 14.71 5.14223 14.51 5.30623C14.394 5.40223 14.246 5.41623 14.112 5.34423C13.89 5.22423 13.68 5.09423 13.468 4.95023C13.402 4.90823 13.362 4.85023 13.33 4.77823ZM14.716 14.8922C14.558 15.0662 14.398 15.2382 14.246 15.4162C14.054 15.6362 13.698 15.5502 13.626 15.2722C13.594 15.1562 13.622 15.0322 13.698 14.9462C13.862 14.7582 14.024 14.5762 14.192 14.3982C14.226 14.3702 14.264 14.3422 14.302 14.3222C14.672 14.1602 14.984 14.6102 14.716 14.8922ZM16.878 13.1282C16.686 13.2582 16.494 13.3922 16.308 13.5302C16.264 13.5602 16.226 13.5782 16.178 13.5942C15.794 13.6842 15.564 13.1902 15.876 12.9562C16.078 12.8062 16.274 12.6682 16.48 12.5282C16.562 12.4762 16.658 12.4622 16.754 12.4762C17.066 12.5482 17.142 12.9502 16.878 13.1282ZM17.368 5.93823C17.314 6.08823 17.162 6.18823 17.004 6.17423C16.75 6.15423 16.504 6.12623 16.256 6.08223C16.016 6.04423 15.886 5.78023 15.996 5.56423C16.068 5.42623 16.222 5.34823 16.374 5.37823C16.6 5.41623 16.826 5.44023 17.052 5.45823C17.29 5.47423 17.444 5.71423 17.368 5.93823ZM17.89 7.56423C17.852 7.31423 17.828 7.06623 17.818 6.81223C17.804 6.58223 18.02 6.39423 18.25 6.44223C18.408 6.47623 18.528 6.61423 18.534 6.77823C18.548 7.00823 18.566 7.23423 18.6 7.45823C18.614 7.54623 18.596 7.62223 18.552 7.69823C18.37 7.98623 17.938 7.89623 17.89 7.56423ZM19.358 11.8322C19.148 11.9142 18.916 12.0062 18.716 12.1062C18.5 12.2082 18.25 12.0722 18.208 11.8422C18.178 11.6842 18.264 11.5222 18.414 11.4542C18.638 11.3482 18.864 11.2522 19.09 11.1622C19.338 11.0662 19.602 11.2582 19.584 11.5262C19.574 11.6602 19.482 11.7802 19.358 11.8322ZM19.19 10.5382C19.09 10.5182 19.004 10.4662 18.946 10.3802C18.812 10.1682 18.682 9.94823 18.572 9.72223C18.548 9.68023 18.538 9.63623 18.534 9.58823C18.514 9.19023 19.036 9.05623 19.214 9.39623C19.314 9.60223 19.43 9.80023 19.55 9.99223C19.718 10.2542 19.498 10.5902 19.19 10.5382Z" fill="url(#paint0_linear_113_100)"/>
</g>
<defs>
<linearGradient id="paint0_linear_113_100" x1="11.96" y1="0.740235" x2="11.9601" y2="27.0829" gradientUnits="userSpaceOnUse">
<stop stop-color="#22A900"/>
<stop offset="1" stop-color="#155A03"/>
</linearGradient>
<clipPath id="clip0_113_100">
<rect width="24" height="24" fill="white"/>
</clipPath>
</defs>
</svg>
