<svg width="16" height="16" viewBox="0 0 16 16" fill="none" xmlns="http://www.w3.org/2000/svg">
<g clip-path="url(#clip0_121_103)">
<path d="M8.00138 6.00072C8.00138 6.17752 8.07162 6.34707 8.19665 6.47209C8.32167 6.5971 8.49124 6.66733 8.66805 6.66733H12.0014C12.1782 6.66733 12.3478 6.5971 12.4728 6.47209C12.5978 6.34707 12.668 6.17752 12.668 6.00072V0.667832C12.668 0.300529 12.3694 0.0012207 12.0014 0.0012207H8.66805C8.30005 0.0012207 8.00138 0.300529 8.00138 0.667832V2.66766H1.33472V4.00089H8.00138V6.00072ZM6.00138 8.00055H2.00138C1.88078 8.00076 1.76248 8.03364 1.65908 8.09571C1.55567 8.15777 1.47102 8.2467 1.41412 8.35303C1.35723 8.45936 1.33021 8.57913 1.33595 8.69958C1.34169 8.82004 1.37997 8.93669 1.44672 9.03713L2.78005 11.037C2.88205 11.1903 3.04338 11.2943 3.22472 11.3249L6.00138 11.7876V8.00055Z" fill="#DAEDD5"/>
<path d="M14.2493 10.6204C14.502 10.5185 14.668 10.2738 14.668 10.0012V8.00133C14.668 7.63403 14.3693 7.33472 14.0013 7.33472H7.33468C6.96668 7.33472 6.66801 7.63403 6.66801 8.00133V12.2556L4.37001 13.4049C4.25929 13.4602 4.16616 13.5453 4.10104 13.6505C4.03593 13.7558 4.00141 13.8771 4.00134 14.0008V15.3341C4.00134 15.5108 4.07158 15.6804 4.19661 15.8054C4.32163 15.9304 4.4912 16.0007 4.66801 16.0007H14.0013C14.1782 16.0007 14.3477 15.9304 14.4727 15.8054C14.5978 15.6804 14.668 15.5108 14.668 15.3341V14.0008C14.668 13.8677 14.6281 13.7376 14.5535 13.6274C14.4788 13.5171 14.3729 13.4317 14.2493 13.3822L11.3347 12.2163V11.7857L14.2493 10.6204Z" fill="#DAEDD5"/>
</g>
<defs>
<clipPath id="clip0_121_103">
<rect width="16" height="16" fill="white"/>
</clipPath>
</defs>
</svg>
