<svg width="32" height="32" viewBox="0 0 32 32" fill="none" xmlns="http://www.w3.org/2000/svg">
<path d="M11.1379 25.8048L7.13788 29.8048C6.94721 29.9954 6.66055 30.0528 6.41121 29.9494C6.16255 29.8468 5.99988 29.6028 5.99988 29.3334V26.9428L5.13788 27.8048C4.87722 28.0654 4.45588 28.0654 4.19522 27.8048C3.93455 27.5441 3.93455 27.1228 4.19522 26.8621L5.05722 26.0001H2.66655C2.39722 26.0001 2.15322 25.8374 2.05055 25.5888C1.94722 25.3394 2.00455 25.0528 2.19522 24.8621L6.19522 20.8621C6.32055 20.7368 6.48988 20.6668 6.66655 20.6668H10.3905L16.6425 14.4148L17.5852 15.3574L11.3332 21.6094V25.3334C11.3332 25.5101 11.2632 25.6801 11.1379 25.8048ZM21.3572 11.5861L23.4339 9.51011C23.5345 9.73811 23.6759 9.95211 23.8625 10.1388C24.6739 10.9501 25.9939 10.9501 26.8052 10.1388C28.3305 8.61345 28.3719 5.67278 27.9659 4.45611C27.8992 4.25678 27.7432 4.10078 27.5439 4.03411C26.3272 3.62878 23.3879 3.66945 21.8619 5.19611C21.0505 6.00745 21.0505 7.32745 21.8619 8.13878C22.0485 8.32545 22.2625 8.46678 22.4905 8.56745L20.4139 10.6434L21.3572 11.5861ZM26.3712 16.4861C25.1892 15.3041 23.6779 14.4841 21.9905 14.1061L17.8939 10.0094C17.5172 8.32278 16.6965 6.81211 15.5139 5.62878C12.3285 2.44345 7.02922 2.13345 2.62922 4.87078C2.00922 5.25811 1.81922 6.08478 2.20322 6.70745C2.58588 7.31411 3.38455 7.50745 4.00055 7.15012V21.1714L5.25322 19.9188C5.27855 19.8934 5.30788 19.8761 5.33388 19.8521V6.44945C8.35455 5.12811 11.6172 5.50211 13.6285 7.51411C14.5239 8.40945 15.1205 9.58011 15.3532 10.8981C15.4005 11.1688 15.5285 11.4148 15.7239 11.6094L20.3905 16.2761C20.5852 16.4708 20.8312 16.5988 21.1012 16.6461C22.4199 16.8794 23.5905 17.4761 24.4859 18.3714C26.4979 20.3834 26.8719 23.6454 25.5505 26.6668H12.1472C12.1239 26.6928 12.1059 26.7228 12.0805 26.7474L10.8285 28.0001H24.8505C24.4932 28.6161 24.6865 29.4141 25.2932 29.7968C25.9159 30.1808 26.7439 29.9908 27.1312 29.3708C29.8685 24.9694 29.5565 19.6708 26.3712 16.4861Z" fill="white"/>
</svg>
