<svg width="24" height="24" viewBox="0 0 24 24" fill="none" xmlns="http://www.w3.org/2000/svg">
<path d="M8.3535 19.3533L5.3535 22.3533C5.2105 22.4963 4.9955 22.5393 4.8085 22.4618C4.622 22.3848 4.5 22.2018 4.5 21.9998V20.2068L3.8535 20.8533C3.658 21.0488 3.342 21.0488 3.1465 20.8533C2.951 20.6578 2.951 20.3418 3.1465 20.1463L3.793 19.4998H2C1.798 19.4998 1.615 19.3778 1.538 19.1913C1.4605 19.0043 1.5035 18.7893 1.6465 18.6463L4.6465 15.6463C4.7405 15.5523 4.8675 15.4998 5 15.4998H7.793L12.482 10.8108L13.189 11.5178L8.5 16.2068V18.9998C8.5 19.1323 8.4475 19.2598 8.3535 19.3533ZM16.018 8.68934L17.5755 7.13234C17.651 7.30334 17.757 7.46384 17.897 7.60384C18.5055 8.21234 19.4955 8.21234 20.104 7.60384C21.248 6.45984 21.279 4.25434 20.9745 3.34184C20.9245 3.19234 20.8075 3.07534 20.658 3.02534C19.7455 2.72134 17.541 2.75184 16.3965 3.89684C15.788 4.50534 15.788 5.49534 16.3965 6.10384C16.5365 6.24384 16.697 6.34984 16.868 6.42534L15.3105 7.98234L16.018 8.68934ZM19.7785 12.3643C18.892 11.4778 17.7585 10.8628 16.493 10.5793L13.4205 7.50684C13.138 6.24184 12.5225 5.10884 11.6355 4.22134C9.2465 1.83234 5.272 1.59984 1.972 3.65284C1.507 3.94334 1.3645 4.56334 1.6525 5.03034C1.9395 5.48534 2.5385 5.63034 3.0005 5.36234V15.8783L3.94 14.9388C3.959 14.9198 3.981 14.9068 4.0005 14.8888V4.83684C6.266 3.84584 8.713 4.12634 10.2215 5.63534C10.893 6.30684 11.3405 7.18484 11.515 8.17334C11.5505 8.37634 11.6465 8.56084 11.793 8.70684L15.293 12.2068C15.439 12.3528 15.6235 12.4488 15.826 12.4843C16.815 12.6593 17.693 13.1068 18.3645 13.7783C19.8735 15.2873 20.154 17.7338 19.163 19.9998H9.1105C9.093 20.0193 9.0795 20.0418 9.0605 20.0603L8.1215 20.9998H18.638C18.37 21.4618 18.515 22.0603 18.97 22.3473C19.437 22.6353 20.058 22.4928 20.3485 22.0278C22.4015 18.7268 22.1675 14.7528 19.7785 12.3643Z" fill="url(#paint0_linear_113_111)"/>
<defs>
<linearGradient id="paint0_linear_113_111" x1="11.5846" y1="2.25781" x2="11.5846" y2="25.9339" gradientUnits="userSpaceOnUse">
<stop stop-color="#22A900"/>
<stop offset="1" stop-color="#155A03"/>
</linearGradient>
</defs>
</svg>
