<svg width="20" height="20" viewBox="0 0 20 20" fill="none" xmlns="http://www.w3.org/2000/svg">
<path d="M10 0C5.80021 0 2 3.27255 2 8.33446C2 11.5668 4.45028 15.3687 9.34003 19.7488C9.52481 19.9108 9.76074 20 10.0048 20C10.2489 20 10.4848 19.9108 10.6696 19.7488C15.5497 15.3687 18 11.5668 18 8.33446C18 3.27255 14.1998 0 10 0ZM10 10.1641C8.89966 10.1641 7.9997 9.24926 7.9997 8.13076C7.9997 7.01227 8.89966 6.09746 10 6.09746C11.1003 6.09746 12.0003 7.01227 12.0003 8.13076C12.0003 9.24926 11.1003 10.1641 10 10.1641Z" fill="white"/>
</svg>
