<svg width="32" height="32" viewBox="0 0 32 32" fill="none" xmlns="http://www.w3.org/2000/svg">
<g clip-path="url(#clip0_127_116)">
<path d="M25.8411 29.7141C25.4811 28.9266 25.2194 28.1208 25.0469 27.4991L29.4903 24.6623C29.6217 24.5777 29.6789 24.4142 29.6274 24.2668L28.6903 21.5534C28.6263 21.3683 28.4183 21.2757 28.2377 21.3534L23.9989 23.1616C23.5737 21.7317 23.472 20.8288 23.4583 18.8572H20.5714V21.7134C20.5714 22.1866 20.1874 22.5707 19.7143 22.5707C19.2411 22.5707 18.8571 22.1866 18.8571 21.7134V18.8561H12.5714V22.8564C12.5714 23.3296 12.1874 23.7136 11.7143 23.7136C11.2411 23.7136 10.8571 23.3296 10.8571 22.8564V18.8561H6.84686C6.808 23.5147 6.28457 26.763 4.79657 29.7141H0V32C11.5394 32 20.3966 32 32 32V29.7141H25.8411ZM14.8571 25.1423C14.8571 24.6691 15.2411 24.2851 15.7143 24.2851C16.1874 24.2851 16.5714 24.6691 16.5714 25.1423C16.5714 26.9127 17.1314 28.5666 18.0914 29.7141H16.0274C15.2823 28.402 14.8571 26.8087 14.8571 25.1423ZM29.2686 2.06953L13.8686 10.2176C14.8697 11.6658 16.4811 13.0041 18.2857 13.7128C17.7349 15.0009 16.6023 16.2593 15.3577 17.1416H10.44C10.6103 14.322 9.25257 11.6017 8.77143 10.7148C8.68 10.5468 8.74629 10.3434 8.91543 10.2542L28.2 0.0487913C28.4057 -0.0597891 28.6594 0.0190744 28.768 0.223663L29.4434 1.50034C29.552 1.70607 29.4743 1.96095 29.2686 2.06953Z" fill="white"/>
</g>
<defs>
<clipPath id="clip0_127_116">
<rect width="32" height="32" fill="white"/>
</clipPath>
</defs>
</svg>
