<svg width="24" height="24" viewBox="0 0 24 24" fill="none" xmlns="http://www.w3.org/2000/svg">
<path d="M17.9583 22.4983C17.722 21.9815 17.5503 21.4528 17.437 21.0448L20.353 19.1833C20.4393 19.1278 20.4767 19.0205 20.443 18.9238L19.828 17.1433C19.786 17.0218 19.6495 16.961 19.531 17.012L16.7493 18.1985C16.4703 17.2603 16.4035 16.6678 16.3945 15.374H14.5V17.2483C14.5 17.5588 14.248 17.8108 13.9375 17.8108C13.627 17.8108 13.375 17.5588 13.375 17.2483V15.3733H9.25V17.9983C9.25 18.3088 8.998 18.5608 8.6875 18.5608C8.377 18.5608 8.125 18.3088 8.125 17.9983V15.3733H5.49325C5.46775 18.4303 5.12425 20.5618 4.14775 22.4983H1V23.9983C8.57275 23.9983 14.3853 23.9983 22 23.9983V22.4983H17.9583ZM10.75 19.4983C10.75 19.1878 11.002 18.9358 11.3125 18.9358C11.623 18.9358 11.875 19.1878 11.875 19.4983C11.875 20.66 12.2425 21.7453 12.8725 22.4983H11.518C11.029 21.6373 10.75 20.5918 10.75 19.4983ZM20.2075 4.35802L10.1012 9.70477C10.7583 10.655 11.8158 11.5333 13 11.9983C12.6385 12.8435 11.8952 13.6693 11.0785 14.2483H7.85125C7.963 12.398 7.072 10.613 6.75625 10.031C6.69625 9.92077 6.73975 9.78727 6.85075 9.72877L19.5062 3.03202C19.6412 2.96077 19.8078 3.01252 19.879 3.14677L20.3223 3.98452C20.3935 4.11952 20.3425 4.28677 20.2075 4.35802Z" fill="url(#paint0_linear_113_98)"/>
<defs>
<linearGradient id="paint0_linear_113_98" x1="11.4618" y1="3" x2="11.4618" y2="27.5605" gradientUnits="userSpaceOnUse">
<stop stop-color="#22A900"/>
<stop offset="1" stop-color="#155A03"/>
</linearGradient>
</defs>
</svg>
