<svg width="32" height="32" viewBox="0 0 32 32" fill="none" xmlns="http://www.w3.org/2000/svg">
<path d="M26.7412 0.85495C26.0985 0.296017 25.164 0.0340172 23.7147 0.00201718C22.3979 -0.0270495 20.8347 0.258284 19.0623 0.840417C18.7973 0.933617 18.5847 1.08202 18.3964 1.26548C16.5826 2.96854 14.8438 4.74978 13.1849 6.60415L13.0571 6.74388C13.0402 6.76324 13.0297 6.78731 13.027 6.81284C13.0243 6.83837 13.0296 6.8641 13.042 6.88655C13.0687 6.93322 13.1245 6.95655 13.1768 6.94482L13.3628 6.90402C16.0324 6.33348 18.7276 5.89682 21.374 5.60868C21.4611 5.59884 21.5494 5.60778 21.6328 5.6349C21.7162 5.66201 21.7928 5.70668 21.8575 5.76588C21.922 5.82542 21.9732 5.89798 22.0077 5.97877C22.0421 6.05956 22.0591 6.14674 22.0573 6.23455C22.0143 8.86028 22.1096 11.4978 22.3432 14.0739L22.3572 14.2428C22.3598 14.2683 22.3702 14.2924 22.3871 14.3117C22.404 14.331 22.4264 14.3446 22.4513 14.3506C22.4593 14.3535 22.4687 14.3535 22.4804 14.3564C22.5007 14.3562 22.5206 14.3513 22.5387 14.3422C22.5569 14.3331 22.5727 14.32 22.5849 14.3039L22.6803 14.1672C24.1778 12.0349 25.7862 9.98262 27.4989 8.01895C27.6905 7.80068 27.7405 7.66375 27.7755 7.46588C28.3101 4.03668 27.4815 1.49828 26.7412 0.85495ZM20.8789 8.22562L20.8755 8.06268C20.8746 8.03784 20.8665 8.01379 20.852 7.99358C20.8375 7.97336 20.8174 7.95788 20.7941 7.94908C20.7705 7.9409 20.745 7.93986 20.7208 7.94609C20.6967 7.95233 20.6748 7.96557 20.6581 7.98415L20.5501 8.10642C16.0175 13.3491 12.2065 19.1654 9.22653 25.3979L9.1568 25.5432C9.14548 25.5658 9.14132 25.5913 9.14487 25.6163C9.14842 25.6412 9.15951 25.6646 9.17667 25.6831C9.19968 25.7065 9.2309 25.7201 9.26373 25.721C9.28075 25.7207 9.29762 25.7177 9.31374 25.7123L9.46253 25.6511C12.0089 24.5973 14.6088 23.6832 17.1901 22.9351C17.267 22.9126 17.3385 22.8747 17.4003 22.8236C17.462 22.7726 17.5127 22.7095 17.5492 22.6381C18.6812 20.4316 21.3101 16.1581 21.3101 16.1581C21.3764 16.0622 21.3589 15.9195 21.3589 15.9195C21.3589 15.9195 20.908 10.8107 20.8789 8.22562ZM8.9756 23.1213C9.06627 22.9467 9.48 22.1491 9.57293 21.9715L9.59027 21.9395C12.3611 16.7141 15.7385 11.7829 19.6249 7.28828L19.7329 7.16308C19.7484 7.1436 19.7579 7.12008 19.7604 7.09534C19.7629 7.07059 19.7582 7.04565 19.7469 7.02348C19.7348 7.00147 19.7164 6.9836 19.694 6.97219C19.6717 6.96078 19.6464 6.95635 19.6215 6.95948L19.4588 6.98268C16.8781 7.34041 14.3162 7.8232 11.7823 8.42935C11.5289 8.49922 11.3663 8.66522 11.3313 8.70295C9.42265 10.9881 7.63358 13.3706 5.97133 15.8408C5.89 15.966 5.8608 16.1291 5.88173 16.2629C5.89907 16.3939 6.29773 19.4651 6.90333 21.823C5.40173 26.1458 4.05933 31.8427 4.05933 31.8427C4.054 31.8608 4.0528 31.8799 4.05583 31.8985C4.05885 31.9172 4.06602 31.9349 4.0768 31.9504C4.08801 31.9661 4.10286 31.9788 4.12008 31.9874C4.13729 31.996 4.15635 32.0003 4.1756 31.9999H5.03107C5.05739 32.0001 5.08319 31.9925 5.10512 31.978C5.12706 31.9634 5.14413 31.9426 5.15413 31.9183L5.21227 31.7583C6.08507 29.377 7.0812 27.025 8.18174 24.7311C8.43747 24.2012 8.9756 23.1213 8.9756 23.1213ZM14.0765 25.1067L13.8639 25.1767C12.4959 25.6307 10.4725 26.3323 8.65587 27.1677C8.55947 27.2144 8.4956 27.3424 8.4956 27.3424C8.46067 27.4211 8.42 27.5171 8.3736 27.6247L8.36773 27.6393C8.1632 28.1021 7.88427 28.7979 7.76227 29.0832L7.6692 29.3073C7.6619 29.3246 7.66023 29.3438 7.66442 29.3621C7.66861 29.3803 7.67844 29.3968 7.69253 29.4092C7.70024 29.4175 7.70959 29.4242 7.71998 29.4287C7.73038 29.4332 7.7416 29.4355 7.75293 29.4355C7.76453 29.4355 7.7796 29.4326 7.7936 29.4268L8.01213 29.322C8.51067 29.0862 9.13947 28.7282 9.7972 28.4137L9.82053 28.4021C10.9953 27.8461 12.1691 27.2882 13.342 26.7283C13.342 26.7283 13.4792 26.6555 13.5489 26.5187L14.1869 25.2379C14.1951 25.2216 14.1984 25.2033 14.1963 25.1852C14.1943 25.167 14.187 25.1499 14.1753 25.1359C14.1637 25.1217 14.1481 25.1113 14.1305 25.1061C14.1129 25.101 14.094 25.1011 14.0765 25.1067Z" fill="white"/>
</svg>
