<svg width="32" height="32" viewBox="0 0 32 32" fill="none" xmlns="http://www.w3.org/2000/svg">
<g clip-path="url(#clip0_127_119)">
<path fill-rule="evenodd" clip-rule="evenodd" d="M13 11V9.001C11.55 9.001 9.83897 9 8.38897 9C7.29597 8.998 6.19997 8.567 5.39897 7.808C4.54397 6.998 4.04297 6.306 4.04097 5.125C4.04397 5.084 4.04397 5.043 4.04797 5.002C4.09397 4.599 4.38097 4.197 4.76997 4.061C4.84597 4.034 4.92597 4.016 5.00697 4.007C5.04697 4.002 5.08797 4.002 5.12897 4H26.872C26.912 4.002 26.953 4.005 26.993 4.007C27.033 4.014 27.074 4.018 27.113 4.027C27.548 4.126 27.901 4.514 27.952 4.965C27.964 5.071 27.959 5.177 27.954 5.282C27.907 6.355 27.442 6.974 26.676 7.736C25.915 8.492 24.868 8.952 23.791 8.996C23.736 8.999 23.68 9 23.624 9C22.17 9.002 20.454 9.003 19 9.004V11C20.1 11.001 21.461 11.002 22.561 11.003C23.37 11.007 24.174 11.361 24.721 11.964C25.034 12.309 25.263 12.733 25.382 13.18C26.396 17.033 27.407 20.442 28.409 24.297C28.593 25.015 28.494 25.839 28.141 26.483C27.803 27.097 27.24 27.581 26.581 27.822C26.263 27.938 25.925 27.998 25.587 28C19.196 28.012 12.804 28.012 6.41297 28C5.59397 27.996 4.78697 27.633 4.24297 27.025C3.62897 26.338 3.36597 25.312 3.56597 24.4C3.57397 24.365 3.58197 24.331 3.59097 24.297C4.59297 20.442 5.60397 17.032 6.61797 13.18C6.87197 12.229 7.63097 11.428 8.58297 11.133C8.85997 11.048 9.14997 11.004 9.43897 11.003C10.539 11.002 11.9 11.001 13 11ZM16.018 13.821C17.083 13.826 18.153 14.152 19.039 14.751C20.236 15.559 21.089 16.857 21.348 18.279C21.551 19.395 21.396 20.574 20.906 21.599C20.333 22.796 19.31 23.768 18.085 24.277C16.767 24.826 15.23 24.824 13.915 24.277C12.692 23.769 11.668 22.798 11.094 21.599C10.497 20.351 10.4 18.87 10.84 17.546C11.312 16.122 12.401 14.913 13.778 14.295C14.47 13.985 15.236 13.825 15.983 13.821C15.994 13.821 16.006 13.821 16.018 13.821ZM15 10.999C15.725 10.999 16.275 10.999 17 10.999V9.003C16.275 9.003 15.725 9.003 15 9.003V10.999Z" fill="white"/>
<path d="M16.0311 15.0001C16.4671 15.0211 16.8801 15.3581 17.0261 15.8381C17.0661 15.9701 17.0851 16.1101 17.0871 16.2511V18.7541C17.0811 19.2341 16.8291 19.6981 16.4441 19.8971C15.9941 20.1291 15.4121 19.9621 15.1131 19.4781C14.9841 19.2691 14.9161 19.0141 14.9131 18.7541V16.2511C14.9191 15.7361 15.2121 15.2431 15.6411 15.0701C15.7661 15.0201 15.8971 14.9981 16.0311 15.0001Z" fill="white"/>
</g>
<defs>
<clipPath id="clip0_127_119">
<rect width="32" height="32" fill="white"/>
</clipPath>
</defs>
</svg>
