<svg width="24" height="24" viewBox="0 0 24 24" fill="none" xmlns="http://www.w3.org/2000/svg">
<g clip-path="url(#clip0_113_107)">
<path fill-rule="evenodd" clip-rule="evenodd" d="M9.75 8.25V6.75075C8.6625 6.75075 7.37925 6.75 6.29175 6.75C5.472 6.7485 4.65 6.42525 4.04925 5.856C3.408 5.2485 3.03225 4.7295 3.03075 3.84375C3.033 3.813 3.033 3.78225 3.036 3.7515C3.0705 3.44925 3.28575 3.14775 3.5775 3.04575C3.6345 3.0255 3.6945 3.012 3.75525 3.00525C3.78525 3.0015 3.816 3.0015 3.84675 3H20.154C20.184 3.0015 20.2148 3.00375 20.2448 3.00525C20.2747 3.0105 20.3055 3.0135 20.3348 3.02025C20.661 3.0945 20.9257 3.3855 20.964 3.72375C20.973 3.80325 20.9692 3.88275 20.9655 3.9615C20.9303 4.76625 20.5815 5.2305 20.007 5.802C19.4363 6.369 18.651 6.714 17.8433 6.747C17.802 6.74925 17.76 6.75 17.718 6.75C16.6275 6.7515 15.3405 6.75225 14.25 6.753V8.25C15.075 8.25075 16.0958 8.2515 16.9208 8.25225C17.5275 8.25525 18.1305 8.52075 18.5408 8.973C18.7755 9.23175 18.9473 9.54975 19.0365 9.885C19.797 12.7747 20.5553 15.3315 21.3068 18.2228C21.4447 18.7613 21.3705 19.3792 21.1058 19.8622C20.8523 20.3228 20.43 20.6858 19.9357 20.8665C19.6973 20.9535 19.4438 20.9985 19.1903 21C14.397 21.009 9.603 21.009 4.80975 21C4.1955 20.997 3.59025 20.7248 3.18225 20.2687C2.72175 19.7535 2.5245 18.984 2.6745 18.3C2.6805 18.2737 2.6865 18.2483 2.69325 18.2228C3.44475 15.3315 4.203 12.774 4.9635 9.885C5.154 9.17175 5.72325 8.571 6.43725 8.34975C6.645 8.286 6.8625 8.253 7.07925 8.25225C7.90425 8.2515 8.925 8.25075 9.75 8.25ZM12.0135 10.3658C12.8123 10.3695 13.6147 10.614 14.2792 11.0633C15.177 11.6693 15.8167 12.6427 16.011 13.7092C16.1632 14.5462 16.047 15.4305 15.6795 16.1993C15.2498 17.097 14.4825 17.826 13.5637 18.2078C12.5752 18.6195 11.4225 18.618 10.4362 18.2078C9.519 17.8268 8.751 17.0985 8.3205 16.1993C7.87275 15.2633 7.8 14.1525 8.13 13.1595C8.484 12.0915 9.30075 11.1847 10.3335 10.7213C10.8525 10.4887 11.427 10.3688 11.9872 10.3658C11.9955 10.3658 12.0045 10.3658 12.0135 10.3658ZM11.25 8.24925C11.7937 8.24925 12.2063 8.24925 12.75 8.24925V6.75225C12.2063 6.75225 11.7937 6.75225 11.25 6.75225V8.24925Z" fill="url(#paint0_linear_113_107)"/>
<path d="M12.0233 11.2501C12.3503 11.2658 12.66 11.5186 12.7695 11.8786C12.7995 11.9776 12.8138 12.0826 12.8153 12.1883V14.0656C12.8108 14.4256 12.6218 14.7736 12.333 14.9228C11.9955 15.0968 11.559 14.9716 11.3348 14.6086C11.238 14.4518 11.187 14.2606 11.1848 14.0656V12.1883C11.1893 11.8021 11.409 11.4323 11.7308 11.3026C11.8245 11.2651 11.9228 11.2486 12.0233 11.2501Z" fill="url(#paint1_linear_113_107)"/>
</g>
<defs>
<linearGradient id="paint0_linear_113_107" x1="11.9658" y1="3" x2="11.9658" y2="24.0615" gradientUnits="userSpaceOnUse">
<stop stop-color="#22A900"/>
<stop offset="1" stop-color="#155A03"/>
</linearGradient>
<linearGradient id="paint1_linear_113_107" x1="11.997" y1="11.25" x2="11.997" y2="15.6365" gradientUnits="userSpaceOnUse">
<stop stop-color="#22A900"/>
<stop offset="1" stop-color="#155A03"/>
</linearGradient>
<clipPath id="clip0_113_107">
<rect width="24" height="24" fill="white"/>
</clipPath>
</defs>
</svg>
