<svg width="32" height="32" viewBox="0 0 32 32" fill="none" xmlns="http://www.w3.org/2000/svg">
<g clip-path="url(#clip0_2048_205)">
<circle cx="16" cy="16" r="16" fill="#1F8505"/>
<path d="M12.3536 23.3535L9.35359 26.3535C9.21059 26.4965 8.99559 26.5395 8.80859 26.462C8.62209 26.385 8.50009 26.202 8.50009 26V24.207L7.85359 24.8535C7.65809 25.049 7.34209 25.049 7.14659 24.8535C6.95109 24.658 6.95109 24.342 7.14659 24.1465L7.79309 23.5H6.00009C5.79809 23.5 5.61509 23.378 5.53809 23.1915C5.46059 23.0045 5.50359 22.7895 5.64659 22.6465L8.64659 19.6465C8.74059 19.5525 8.86759 19.5 9.00009 19.5H11.7931L16.4821 14.811L17.1891 15.518L12.5001 20.207V23C12.5001 23.1325 12.4476 23.26 12.3536 23.3535ZM20.0181 12.6895L21.5756 11.1325C21.6511 11.3035 21.7571 11.464 21.8971 11.604C22.5056 12.2125 23.4956 12.2125 24.1041 11.604C25.2481 10.46 25.2791 8.25446 24.9746 7.34196C24.9246 7.19246 24.8076 7.07546 24.6581 7.02546C23.7456 6.72146 21.5411 6.75196 20.3966 7.89696C19.7881 8.50546 19.7881 9.49546 20.3966 10.104C20.5366 10.244 20.6971 10.35 20.8681 10.4255L19.3106 11.9825L20.0181 12.6895ZM23.7786 16.3645C22.8921 15.478 21.7586 14.863 20.4931 14.5795L17.4206 11.507C17.1381 10.242 16.5226 9.10896 15.6356 8.22146C13.2466 5.83246 9.27209 5.59996 5.97209 7.65296C5.50709 7.94346 5.36459 8.56346 5.65259 9.03046C5.93959 9.48546 6.53859 9.63046 7.00059 9.36246V19.8785L7.94009 18.939C7.95909 18.92 7.98109 18.907 8.00059 18.889V8.83696C10.2661 7.84596 12.7131 8.12646 14.2216 9.63546C14.8931 10.307 15.3406 11.185 15.5151 12.1735C15.5506 12.3765 15.6466 12.561 15.7931 12.707L19.2931 16.207C19.4391 16.353 19.6236 16.449 19.8261 16.4845C20.8151 16.6595 21.6931 17.107 22.3646 17.7785C23.8736 19.2875 24.1541 21.734 23.1631 24H13.1106C13.0931 24.0195 13.0796 24.042 13.0606 24.0605L12.1216 25H22.6381C22.3701 25.462 22.5151 26.0605 22.9701 26.3475C23.4371 26.6355 24.0581 26.493 24.3486 26.028C26.4016 22.727 26.1676 18.753 23.7786 16.3645Z" fill="white"/>
</g>
<defs>
<clipPath id="clip0_2048_205">
<rect width="32" height="32" fill="white"/>
</clipPath>
</defs>
</svg>
