<svg width="144" height="42" viewBox="0 0 144 42" fill="none" xmlns="http://www.w3.org/2000/svg">
<g clip-path="url(#clip0_169_246)">
<path d="M10.9627 18.2525C11.4161 19.3153 12.3497 19.8467 13.7634 19.8467C15.3638 19.8467 16.6441 19.0496 17.6043 17.4555C18.2711 16.3662 18.6046 14.9846 18.6046 13.3108C18.6046 10.8399 17.9511 9.03328 16.6441 7.89084C15.6572 7.04065 14.4035 6.61555 12.8832 6.61555C12.5364 6.61555 12.1763 6.64212 11.8029 6.69526L9.12224 7.09378V30.4873C9.12224 31.2047 9.37563 31.8025 9.88242 32.2807C10.3892 32.7589 10.9894 32.9981 11.6829 32.9981H12.203V33.3966H0.0400097V32.9981H0.560137C1.25364 32.9981 1.84045 32.7589 2.32057 32.2807C2.82736 31.8025 3.09409 31.2047 3.12077 30.4873V9.24583C3.09409 8.55505 2.88071 8.0104 2.48061 7.61187C2.10718 7.21334 1.54705 7.01408 0.800196 7.01408C0.613484 7.01408 0.373425 7.02736 0.0800196 7.05393L0 6.69526C2.26722 6.50928 4.64114 6.20374 7.12175 5.77865C9.62903 5.32698 11.2694 5.04801 12.043 4.94174C12.8431 4.83546 13.6433 4.78233 14.4435 4.78233C15.2704 4.78233 16.2573 4.87532 17.4043 5.0613C18.5512 5.22071 19.7248 5.60595 20.9251 6.21702C22.1254 6.80153 23.099 7.67829 23.8458 8.8473C24.6194 10.1226 25.0061 11.5706 25.0061 13.1913C25.0061 14.7854 24.7127 16.1935 24.1259 17.4156C23.0056 19.7537 21.0852 21.2415 18.3645 21.8791C17.6977 22.0386 17.0575 22.1183 16.444 22.1183C15.8572 22.1183 15.2971 22.0651 14.7636 21.9588C13.67 21.7994 12.7498 21.4275 12.0029 20.843C11.2561 20.2585 10.7893 19.4481 10.6026 18.412L10.9627 18.2525Z" fill="white"/>
<path d="M61.2309 40.6896C58.3236 42.1509 55.3762 42.39 52.3888 41.407C49.2147 40.3974 46.4807 38.2453 44.1868 34.9508C42.9598 33.1973 41.9062 31.1648 41.026 28.8534L39.7457 25.4659H30.3034L28.1828 30.4873C28.0495 30.8327 27.9828 31.1117 27.9828 31.3242C27.9828 31.5368 28.0228 31.7759 28.1028 32.0416C28.2095 32.2807 28.4096 32.5065 28.703 32.7191C29.0231 32.9051 29.3698 32.9981 29.7432 32.9981H30.0633V33.3966H21.5012V32.9981H21.8613C22.4748 32.9981 23.0749 32.8254 23.6617 32.48C24.2752 32.108 24.782 31.5634 25.1821 30.846L34.1043 10.561C33.064 8.22295 31.9571 6.61555 30.7835 5.73879C29.7966 4.99487 28.8497 4.62291 27.9428 4.62291C27.0626 4.62291 26.2357 4.75576 25.4622 5.02144L25.3822 4.62291C27.3026 3.63988 29.1431 3.14836 30.9035 3.14836C33.0907 3.14836 35.0512 3.99856 36.785 5.69894C38.492 7.37275 39.9991 9.79048 41.3061 12.9521L47.1075 27.2194C49.2947 32.6128 51.5352 36.3191 53.8291 38.3383C54.7627 39.1619 55.7229 39.7332 56.7098 40.052C57.6967 40.3708 58.5236 40.5302 59.1904 40.5302C59.884 40.5302 60.5508 40.4505 61.1909 40.2911L61.2309 40.6896ZM30.9835 23.7522H39.1455L36.3448 16.3795C36.2115 16.0075 36.0248 15.5027 35.7847 14.8651C35.5446 14.2009 35.3846 13.7359 35.3046 13.4702L30.9835 23.7522Z" fill="white"/>
<path d="M43.5394 3.18822C43.9662 3.16165 44.6464 3.14836 45.5799 3.14836C46.4868 3.14836 47.6871 3.34763 49.1808 3.74616C50.7012 4.11812 52.1015 4.71591 53.3818 5.53953C54.6622 6.36315 55.8358 7.35947 56.9027 8.52848C58.8765 10.7071 60.4236 13.3241 61.5438 16.3795C63.1442 11.8363 65.2247 8.35579 67.7854 5.93806C69.7325 4.10483 71.8797 3.18822 74.227 3.18822C74.3336 3.18822 74.4403 3.18822 74.547 3.18822V3.58675C73.2134 3.61331 71.8264 4.31738 70.386 5.69894C68.9723 7.05393 67.732 8.70118 66.6651 10.6407C65.5982 12.5802 64.6913 14.5994 63.9444 16.6983C63.2242 18.7972 62.7975 20.6171 62.6641 22.1581V30.4873C62.6641 31.1515 62.9042 31.736 63.3843 32.2408C63.8911 32.7456 64.5046 32.9981 65.2247 32.9981H65.7449V33.3966H53.5819V32.9981H54.102C54.7955 32.9981 55.3823 32.7589 55.8624 32.2807C56.3692 31.7759 56.636 31.1781 56.6626 30.4873V22.1183C56.3426 19.2489 55.3823 16.2068 53.7819 12.992C51.9415 9.2724 49.8743 6.62884 47.5804 5.0613C46.2468 4.1314 44.8998 3.63988 43.5394 3.58675V3.18822Z" fill="white"/>
<path d="M84.9893 4.94174C88.1901 4.94174 90.9641 5.53953 93.3113 6.73511C95.6852 7.90412 97.5123 9.56465 98.7927 11.7167C100.1 13.8687 100.753 16.4459 100.753 19.4481C100.753 22.4238 100.1 25.0009 98.7927 27.1796C97.5123 29.3316 95.6852 31.0054 93.3113 32.201C90.9641 33.37 88.1901 33.9545 84.9893 33.9545C81.7885 33.9545 79.0011 33.37 76.6272 32.201C74.28 31.0054 72.4662 29.3316 71.1859 27.1796C69.9056 25.0275 69.2654 22.4504 69.2654 19.4481C69.2654 16.4725 69.9056 13.9086 71.1859 11.7566C72.4662 9.57794 74.28 7.90412 76.6272 6.73511C79.0011 5.53953 81.7885 4.94174 84.9893 4.94174ZM84.9893 32.2807C86.8831 32.2807 88.5101 31.7626 89.8705 30.7264C91.2308 29.6637 92.2844 28.1759 93.0312 26.2629C93.7781 24.35 94.1515 22.0784 94.1515 19.4481C94.1515 16.8178 93.7781 14.5462 93.0312 12.6333C92.2844 10.7204 91.2308 9.24583 89.8705 8.20966C88.5101 7.14692 86.8831 6.61555 84.9893 6.61555C83.1221 6.61555 81.4951 7.14692 80.1081 8.20966C78.7477 9.24583 77.6942 10.7204 76.9473 12.6333C76.2005 14.5462 75.827 16.8178 75.827 19.4481C75.827 22.0784 76.2005 24.35 76.9473 26.2629C77.6942 28.1759 78.7477 29.6637 80.1081 30.7264C81.4951 31.7626 83.1221 32.2807 84.9893 32.2807Z" fill="white"/>
<path d="M137.038 37.5413C137.492 37.8069 137.999 38.0461 138.559 38.2586C139.119 38.4977 139.652 38.6571 140.159 38.7368C140.693 38.8431 141.266 38.8963 141.879 38.8963C142.52 38.8963 143.173 38.8165 143.84 38.6571L144 39.0557C142.506 39.773 140.999 40.1317 139.479 40.1317C135.985 40.1317 132.424 38.2055 128.796 34.353L109.832 14.3071V30.6069C109.832 31.2711 110.072 31.8423 110.552 32.3206C111.032 32.7722 111.605 32.9981 112.272 32.9981H113.032V33.3966H100.909V32.9981H101.63C102.323 32.9981 102.91 32.7722 103.39 32.3206C103.87 31.8423 104.11 31.2578 104.11 30.567V8.20966C102.803 6.72183 101.816 5.68566 101.149 5.10115C100.483 4.49007 99.8958 3.98527 99.3891 3.58675C98.8556 3.18822 98.3488 2.85611 97.8687 2.59043C96.7484 1.95278 95.8549 1.58082 95.188 1.47455C94.4945 1.36828 93.8544 1.31514 93.2675 1.31514C92.6541 1.31514 92.0006 1.4347 91.3071 1.67381L91.147 1.27529C92.6141 0.425096 94.1211 0 95.6681 0C99.029 0 102.59 1.99264 106.351 5.97791L124.235 24.9079V8.32922C124.208 7.63844 123.955 7.06722 123.475 6.61555C122.995 6.13732 122.421 5.8982 121.755 5.8982H121.034V5.49968H133.157V5.8982H132.397C131.73 5.8982 131.157 6.13732 130.677 6.61555C130.197 7.06722 129.943 7.62515 129.917 8.28936V30.9656L130.557 31.6032C130.717 31.7626 130.957 32.0416 131.277 32.4401C131.624 32.8121 131.93 33.1309 132.197 33.3966C132.464 33.6888 132.797 34.0475 133.197 34.4726C133.624 34.8977 134.011 35.2697 134.358 35.5885C134.731 35.9073 135.158 36.2527 135.638 36.6246C136.145 36.9966 136.612 37.3021 137.038 37.5413Z" fill="white"/>
</g>
<defs>
<clipPath id="clip0_169_246">
<rect width="144" height="42" fill="white"/>
</clipPath>
</defs>
</svg>
